M48
; DRILL file {KiCad 9.0.7} date 2026-05-24T23:53:25+0200
; FORMAT={-:-/ absolute / metric / decimal}
; #@! TF.CreationDate,2026-05-24T23:53:25+02:00
; #@! TF.GenerationSoftware,Kicad,Pcbnew,9.0.7
; #@! TF.FileFunction,Plated,1,2,PTH
FMAT,2
METRIC
; #@! TA.AperFunction,Plated,PTH,ComponentDrill
T1C0.600
; #@! TA.AperFunction,Plated,PTH,ComponentDrill
T2C0.750
; #@! TA.AperFunction,Plated,PTH,ComponentDrill
T3C0.800
; #@! TA.AperFunction,Plated,PTH,ComponentDrill
T4C0.900
; #@! TA.AperFunction,Plated,PTH,ComponentDrill
T5C1.000
; #@! TA.AperFunction,Plated,PTH,ComponentDrill
T6C1.100
; #@! TA.AperFunction,Plated,PTH,ComponentDrill
T7C1.120
; #@! TA.AperFunction,Plated,PTH,ComponentDrill
T8C1.150
; #@! TA.AperFunction,Plated,PTH,ComponentDrill
T9C1.200
%
G90
G05
T1
X114.96Y-76.79
X116.46Y-76.79
X119.82Y-76.79
X121.32Y-76.79
X134.48Y-105.305
X135.98Y-105.305
X139.48Y-105.305
X140.98Y-105.305
T2
X115.17Y-93.35
X120.17Y-93.35
X124.67Y-79.865
X124.67Y-83.88
X124.67Y-113.215
X129.67Y-79.865
X129.67Y-83.88
X129.67Y-113.215
X134.17Y-75.905
X134.17Y-79.093
X134.17Y-82.28
X134.17Y-113.555
X134.17Y-118.005
X139.17Y-75.905
X139.17Y-79.093
X139.17Y-82.28
X139.17Y-113.555
X139.17Y-118.005
X155.87Y-115.908
X160.87Y-115.908
X165.48Y-92.205
X165.5Y-110.595
X170.48Y-92.205
X170.5Y-110.595
T3
X114.43Y-80.615
X114.43Y-84.13
X116.82Y-115.04
X116.82Y-122.66
X117.93Y-71.62
X117.93Y-90.183
X117.93Y-96.567
X117.93Y-106.145
X117.93Y-109.333
X117.935Y-99.72
X117.935Y-102.93
X117.96Y-87.19
X117.98Y-112.325
X120.28Y-115.04
X120.28Y-122.66
X120.46Y-87.19
X120.47Y-71.62
X120.47Y-90.183
X120.47Y-96.567
X120.47Y-106.145
X120.47Y-109.333
X120.475Y-99.72
X120.475Y-102.93
X120.48Y-112.325
X122.05Y-80.615
X122.05Y-84.13
X123.36Y-87.165
X123.36Y-90.665
X123.36Y-93.205
X123.36Y-95.745
X123.36Y-98.285
X123.36Y-100.825
X123.36Y-103.365
X123.36Y-105.905
X123.36Y-117.065
X123.36Y-120.415
X123.36Y-123.765
X125.92Y-109.365
X128.42Y-109.365
X130.98Y-87.165
X130.98Y-90.665
X130.98Y-93.205
X130.98Y-95.745
X130.98Y-98.285
X130.98Y-100.825
X130.98Y-103.365
X130.98Y-105.905
X130.98Y-117.065
X130.98Y-120.415
X130.98Y-123.765
X130.98Y-144.035
X130.98Y-151.655
X133.76Y-109.605
X133.85Y-91.192
X133.86Y-85.468
X133.86Y-88.455
X133.86Y-93.88
X133.86Y-96.817
X133.86Y-100.005
X136.36Y-88.455
X138.23Y-61.325
X141.38Y-109.605
X141.47Y-91.192
X141.48Y-85.468
X141.48Y-93.88
X141.48Y-96.817
X141.48Y-100.005
X143.85Y-75.505
X143.86Y-78.838
X143.86Y-82.172
X143.86Y-85.505
X143.86Y-94.705
X143.86Y-97.995
X143.86Y-101.285
X143.86Y-104.575
X143.86Y-107.615
X143.86Y-110.405
X145.85Y-61.325
X146.375Y-90.205
X148.875Y-90.205
X151.47Y-75.505
X151.48Y-78.838
X151.48Y-82.172
X151.48Y-85.505
X151.48Y-94.705
X151.48Y-97.995
X151.48Y-101.285
X151.48Y-104.575
X151.48Y-107.615
X151.48Y-110.405
X154.56Y-89.443
X154.56Y-91.983
X154.56Y-94.523
X154.56Y-97.063
X154.56Y-99.603
X154.56Y-102.143
X154.56Y-104.683
X154.56Y-111.86
X154.56Y-119.957
X154.56Y-123.505
X154.67Y-82.985
X154.88Y-74.905
X157.12Y-108.312
X157.17Y-82.985
X157.38Y-74.905
X159.62Y-108.312
X162.18Y-89.443
X162.18Y-91.983
X162.18Y-94.523
X162.18Y-97.063
X162.18Y-99.603
X162.18Y-102.143
X162.18Y-104.683
X162.18Y-111.86
X162.18Y-119.957
X162.18Y-123.505
X165.54Y-113.879
X165.54Y-117.088
X165.54Y-120.296
X165.54Y-123.505
X165.9Y-104.245
X165.91Y-107.465
X168.08Y-113.879
X168.08Y-117.088
X168.08Y-120.296
X168.08Y-123.505
X168.44Y-104.245
X168.45Y-107.465
T4
X128.11Y-138.225
X130.65Y-138.225
T5
X124.54Y-76.171
X127.04Y-71.171
X129.54Y-76.171
X145.17Y-118.385
X147.67Y-113.385
X150.17Y-118.385
X165.36Y-100.585
X167.86Y-95.585
X170.36Y-100.585
T6
X136.98Y-65.605
X147.14Y-65.605
T7
X116.72Y-65.355
X121.72Y-65.355
X126.72Y-65.355
X137.03Y-70.535
X142.03Y-70.535
X147.03Y-70.535
X157.41Y-65.355
X162.41Y-65.355
X167.41Y-65.355
T8
X131.84Y-62.315
X133.35Y-131.895
X136.95Y-131.895
X136.98Y-123.705
X139.23Y-54.975
X140.55Y-131.895
X140.58Y-123.705
X144.15Y-131.895
X144.18Y-123.705
X144.85Y-54.975
X147.75Y-131.895
X147.78Y-123.705
X151.35Y-131.895
X152.31Y-62.315
T9
X136.28Y-139.145G85X137.88Y-139.145
G05
X136.28Y-143.845G85X137.88Y-143.845
G05
X136.28Y-148.545G85X137.88Y-148.545
G05
X141.58Y-139.145G85X143.18Y-139.145
G05
X141.58Y-143.845G85X143.18Y-143.845
G05
X141.58Y-148.545G85X143.18Y-148.545
G05
X146.88Y-139.145G85X148.48Y-139.145
G05
X146.88Y-143.845G85X148.48Y-143.845
G05
X146.88Y-148.545G85X148.48Y-148.545
G05
X161.98Y-75.805G85X163.58Y-75.805
G05
X161.98Y-80.505G85X163.58Y-80.505
G05
X161.98Y-85.205G85X163.58Y-85.205
G05
X166.78Y-75.805G85X168.38Y-75.805
G05
X166.78Y-80.505G85X168.38Y-80.505
G05
X166.78Y-85.205G85X168.38Y-85.205
G05
M30
