%TF.GenerationSoftware,KiCad,Pcbnew,9.0.7*%
%TF.CreationDate,2026-05-24T23:53:22+02:00*%
%TF.ProjectId,bass_big_muff2,62617373-5f62-4696-975f-6d756666322e,rev?*%
%TF.SameCoordinates,Original*%
%TF.FileFunction,Profile,NP*%
%FSLAX46Y46*%
G04 Gerber Fmt 4.6, Leading zero omitted, Abs format (unit mm)*
G04 Created by KiCad (PCBNEW 9.0.7) date 2026-05-24 23:53:22*
%MOMM*%
%LPD*%
G01*
G04 APERTURE LIST*
%ADD10C,0.050000*%
%TA.AperFunction,Profile*%
%ADD11C,0.050000*%
%TD*%
G04 APERTURE END LIST*
D10*
X137800000Y-52245000D02*
X137793668Y-52245010D01*
X137787357Y-52245040D01*
X137781066Y-52245090D01*
X137774795Y-52245159D01*
X137768545Y-52245249D01*
X137762315Y-52245358D01*
X137756104Y-52245486D01*
X137749914Y-52245635D01*
X137743744Y-52245802D01*
X137737594Y-52245989D01*
X137731464Y-52246196D01*
X137725353Y-52246422D01*
X137719262Y-52246667D01*
X137713191Y-52246931D01*
X137707140Y-52247214D01*
X137701108Y-52247517D01*
X137695095Y-52247838D01*
X137689102Y-52248179D01*
X137683128Y-52248538D01*
X137677174Y-52248916D01*
X137671239Y-52249313D01*
X137665323Y-52249729D01*
X137659426Y-52250163D01*
X137653548Y-52250616D01*
X137647689Y-52251088D01*
X137641849Y-52251578D01*
X137636028Y-52252086D01*
X137630226Y-52252613D01*
X137624442Y-52253158D01*
X137618678Y-52253722D01*
X137612931Y-52254304D01*
X137607204Y-52254904D01*
X137601494Y-52255522D01*
X137595804Y-52256158D01*
X137590131Y-52256812D01*
X137584477Y-52257484D01*
X137578841Y-52258174D01*
X137573224Y-52258882D01*
X137567623Y-52259608D01*
X137562043Y-52260352D01*
X137556478Y-52261113D01*
X137550934Y-52261892D01*
X137545405Y-52262689D01*
X137539896Y-52263503D01*
X137534403Y-52264335D01*
X137528930Y-52265185D01*
X137523472Y-52266052D01*
X137518034Y-52266936D01*
X137512612Y-52267837D01*
X137507209Y-52268756D01*
X137501821Y-52269693D01*
X137496453Y-52270646D01*
X137491100Y-52271617D01*
X137485766Y-52272604D01*
X137480448Y-52273610D01*
X137475149Y-52274631D01*
X137469864Y-52275671D01*
X137464599Y-52276727D01*
X137459349Y-52277800D01*
X137454118Y-52278890D01*
X137448901Y-52279997D01*
X137443704Y-52281120D01*
X137438521Y-52282261D01*
X137433356Y-52283418D01*
X137428207Y-52284592D01*
X137423076Y-52285782D01*
X137417959Y-52286990D01*
X137412861Y-52288213D01*
X137407778Y-52289454D01*
X137402712Y-52290711D01*
X137397661Y-52291985D01*
X137392629Y-52293274D01*
X137387610Y-52294581D01*
X137382610Y-52295904D01*
X137377624Y-52297243D01*
X137372656Y-52298599D01*
X137367701Y-52299971D01*
X137362765Y-52301359D01*
X137357842Y-52302764D01*
X137352938Y-52304184D01*
X137348047Y-52305622D01*
X137343174Y-52307074D01*
X137338315Y-52308544D01*
X137333473Y-52310029D01*
X137328645Y-52311531D01*
X137323835Y-52313048D01*
X137319037Y-52314582D01*
X137314258Y-52316132D01*
X137304742Y-52319279D01*
X137295288Y-52322490D01*
X137285894Y-52325765D01*
X137276561Y-52329103D01*
X137267288Y-52332504D01*
X137258074Y-52335968D01*
X137248920Y-52339496D01*
X137239824Y-52343086D01*
X137230787Y-52346738D01*
X137221808Y-52350454D01*
X137212886Y-52354231D01*
X137204022Y-52358071D01*
X137195215Y-52361974D01*
X137186465Y-52365938D01*
X137177771Y-52369964D01*
X137169134Y-52374052D01*
X137160552Y-52378202D01*
X137152025Y-52382414D01*
X137143554Y-52386687D01*
X137135137Y-52391023D01*
X137126775Y-52395419D01*
X137118467Y-52399878D01*
X137110213Y-52404398D01*
X137102013Y-52408979D01*
X137093866Y-52413622D01*
X137085772Y-52418326D01*
X137077731Y-52423092D01*
X137069743Y-52427920D01*
X137061807Y-52432809D01*
X137053923Y-52437760D01*
X137046091Y-52442772D01*
X137038311Y-52447846D01*
X137030581Y-52452981D01*
X137022904Y-52458178D01*
X137015277Y-52463437D01*
X137007701Y-52468758D01*
X137000175Y-52474141D01*
X136992700Y-52479586D01*
X136985275Y-52485093D01*
X136977900Y-52490662D01*
X136970575Y-52496293D01*
X136963300Y-52501986D01*
X136956074Y-52507742D01*
X136948897Y-52513561D01*
X136941770Y-52519442D01*
X136934692Y-52525386D01*
X136927664Y-52531393D01*
X136920684Y-52537463D01*
X136913753Y-52543597D01*
X136906870Y-52549793D01*
X136900036Y-52556053D01*
X136893251Y-52562377D01*
X136886515Y-52568764D01*
X136879826Y-52575215D01*
X136873187Y-52581731D01*
X136866595Y-52588310D01*
X136860052Y-52594954D01*
X136853557Y-52601663D01*
X136847111Y-52608436D01*
X136840712Y-52615274D01*
X136834362Y-52622178D01*
X136828061Y-52629146D01*
X136821807Y-52636180D01*
X136815602Y-52643279D01*
X136809445Y-52650445D01*
X136803337Y-52657676D01*
X136797277Y-52664973D01*
X136791266Y-52672337D01*
X136785303Y-52679766D01*
X136779389Y-52687263D01*
X136773524Y-52694826D01*
X136767707Y-52702456D01*
X136761940Y-52710154D01*
X136756222Y-52717918D01*
X136750553Y-52725750D01*
X136744934Y-52733650D01*
X136739364Y-52741617D01*
X136733844Y-52749652D01*
X136728374Y-52757755D01*
X136722954Y-52765926D01*
X136717584Y-52774166D01*
X136712265Y-52782473D01*
X136706996Y-52790849D01*
X136701779Y-52799294D01*
X136696613Y-52807807D01*
X136691498Y-52816389D01*
X136686435Y-52825039D01*
X136681424Y-52833758D01*
X136676465Y-52842546D01*
X136671559Y-52851402D01*
X136666705Y-52860328D01*
X136661905Y-52869322D01*
X136657159Y-52878384D01*
X136652466Y-52887516D01*
X136647828Y-52896716D01*
X136643244Y-52905984D01*
X136638715Y-52915320D01*
X136634241Y-52924725D01*
X136629823Y-52934197D01*
X136625461Y-52943737D01*
X136621156Y-52953345D01*
X136616908Y-52963019D01*
X136612718Y-52972761D01*
X136608585Y-52982568D01*
X136604510Y-52992442D01*
X136600495Y-53002381D01*
X136596539Y-53012385D01*
X136592643Y-53022454D01*
X136588807Y-53032587D01*
X136585032Y-53042782D01*
X136581319Y-53053041D01*
X136577667Y-53063360D01*
X136574079Y-53073741D01*
X136570553Y-53084181D01*
X136567092Y-53094680D01*
X136563695Y-53105236D01*
X136560363Y-53115849D01*
X136557097Y-53126516D01*
X136553897Y-53137237D01*
X136550764Y-53148010D01*
X136547700Y-53158833D01*
X136544703Y-53169705D01*
X136541776Y-53180623D01*
X136538919Y-53191584D01*
X136536133Y-53202588D01*
X136533419Y-53213630D01*
X136530776Y-53224709D01*
X136528207Y-53235821D01*
X136525712Y-53246962D01*
X136523292Y-53258130D01*
X136520948Y-53269319D01*
X136518680Y-53280527D01*
X136516490Y-53291747D01*
X136514379Y-53302975D01*
X136512347Y-53314205D01*
X136510396Y-53325430D01*
X136508526Y-53336643D01*
X136506738Y-53347837D01*
X136505035Y-53359002D01*
X136503416Y-53370129D01*
X136501882Y-53381206D01*
X136500436Y-53392222D01*
X136499078Y-53403162D01*
X136497810Y-53414009D01*
X136496632Y-53424745D01*
X136495546Y-53435348D01*
X136494553Y-53445791D01*
X136493655Y-53456044D01*
X136492852Y-53466069D01*
X136492147Y-53475820D01*
X136491540Y-53485235D01*
X136491033Y-53494237D01*
X136490628Y-53502716D01*
X136490324Y-53510511D01*
X136490122Y-53517354D01*
X136490019Y-53522715D01*
X136490000Y-53525000D01*
D11*
X153200000Y-127585000D02*
G75*
G02*
X150200000Y-127585000I-1500000J0D01*
G01*
X150200000Y-127585000D02*
G75*
G02*
X153200000Y-127585000I1500000J0D01*
G01*
D10*
X148910000Y-59595000D02*
X148903741Y-59594990D01*
X148897502Y-59594960D01*
X148891283Y-59594910D01*
X148885084Y-59594841D01*
X148878904Y-59594751D01*
X148872744Y-59594642D01*
X148866604Y-59594514D01*
X148860484Y-59594365D01*
X148854383Y-59594198D01*
X148848301Y-59594011D01*
X148842239Y-59593804D01*
X148836196Y-59593578D01*
X148830172Y-59593333D01*
X148824168Y-59593069D01*
X148818183Y-59592785D01*
X148812217Y-59592483D01*
X148806270Y-59592161D01*
X148800342Y-59591821D01*
X148794432Y-59591461D01*
X148788542Y-59591083D01*
X148782670Y-59590686D01*
X148776818Y-59590270D01*
X148770983Y-59589835D01*
X148765168Y-59589382D01*
X148759371Y-59588910D01*
X148753592Y-59588420D01*
X148747832Y-59587911D01*
X148742090Y-59587384D01*
X148736366Y-59586838D01*
X148730661Y-59586274D01*
X148724974Y-59585692D01*
X148719305Y-59585092D01*
X148713654Y-59584473D01*
X148708021Y-59583837D01*
X148702406Y-59583182D01*
X148696809Y-59582509D01*
X148691229Y-59581819D01*
X148685668Y-59581110D01*
X148680123Y-59580383D01*
X148674597Y-59579639D01*
X148669088Y-59578877D01*
X148663597Y-59578097D01*
X148658123Y-59577300D01*
X148652667Y-59576485D01*
X148647228Y-59575652D01*
X148641806Y-59574802D01*
X148636401Y-59573934D01*
X148631015Y-59573049D01*
X148625644Y-59572146D01*
X148620291Y-59571226D01*
X148614954Y-59570288D01*
X148609636Y-59569334D01*
X148604332Y-59568362D01*
X148599048Y-59567373D01*
X148593778Y-59566366D01*
X148588527Y-59565343D01*
X148583290Y-59564302D01*
X148578073Y-59563245D01*
X148572869Y-59562170D01*
X148567684Y-59561079D01*
X148562514Y-59559970D01*
X148557362Y-59558845D01*
X148552224Y-59557702D01*
X148547105Y-59556544D01*
X148542000Y-59555367D01*
X148536913Y-59554175D01*
X148531840Y-59552965D01*
X148526785Y-59551740D01*
X148521744Y-59550497D01*
X148516722Y-59549238D01*
X148511712Y-59547961D01*
X148506721Y-59546669D01*
X148501744Y-59545360D01*
X148496784Y-59544035D01*
X148491838Y-59542692D01*
X148486910Y-59541334D01*
X148481995Y-59539959D01*
X148477098Y-59538568D01*
X148472214Y-59537160D01*
X148467348Y-59535737D01*
X148462495Y-59534296D01*
X148457660Y-59532840D01*
X148452837Y-59531367D01*
X148448032Y-59529878D01*
X148443240Y-59528373D01*
X148438465Y-59526852D01*
X148428959Y-59523761D01*
X148419512Y-59520606D01*
X148410125Y-59517386D01*
X148400798Y-59514103D01*
X148391528Y-59510755D01*
X148382318Y-59507344D01*
X148373165Y-59503870D01*
X148364070Y-59500331D01*
X148355032Y-59496730D01*
X148346051Y-59493066D01*
X148337127Y-59489338D01*
X148328259Y-59485547D01*
X148319447Y-59481694D01*
X148310690Y-59477778D01*
X148301989Y-59473799D01*
X148293342Y-59469758D01*
X148284751Y-59465654D01*
X148276213Y-59461488D01*
X148267729Y-59457259D01*
X148259299Y-59452968D01*
X148250923Y-59448615D01*
X148242599Y-59444199D01*
X148234328Y-59439721D01*
X148226110Y-59435181D01*
X148217944Y-59430578D01*
X148209830Y-59425913D01*
X148201767Y-59421186D01*
X148193756Y-59416397D01*
X148185796Y-59411546D01*
X148177888Y-59406632D01*
X148170029Y-59401655D01*
X148162222Y-59396617D01*
X148154464Y-59391515D01*
X148146757Y-59386352D01*
X148139100Y-59381125D01*
X148131492Y-59375836D01*
X148123933Y-59370484D01*
X148116424Y-59365070D01*
X148108964Y-59359592D01*
X148101553Y-59354052D01*
X148094190Y-59348448D01*
X148086876Y-59342781D01*
X148079611Y-59337051D01*
X148072393Y-59331257D01*
X148065224Y-59325400D01*
X148058103Y-59319479D01*
X148051030Y-59313494D01*
X148044005Y-59307445D01*
X148037027Y-59301332D01*
X148030097Y-59295155D01*
X148023215Y-59288913D01*
X148016380Y-59282607D01*
X148009592Y-59276236D01*
X148002851Y-59269800D01*
X147996158Y-59263298D01*
X147989512Y-59256732D01*
X147982913Y-59250100D01*
X147976362Y-59243402D01*
X147969857Y-59236639D01*
X147963400Y-59229810D01*
X147956989Y-59222914D01*
X147950626Y-59215952D01*
X147944310Y-59208923D01*
X147938041Y-59201828D01*
X147931819Y-59194666D01*
X147925645Y-59187436D01*
X147919518Y-59180140D01*
X147913438Y-59172775D01*
X147907405Y-59165344D01*
X147901421Y-59157844D01*
X147895483Y-59150276D01*
X147889594Y-59142640D01*
X147883752Y-59134935D01*
X147877958Y-59127162D01*
X147872213Y-59119320D01*
X147866515Y-59111409D01*
X147860866Y-59103428D01*
X147855266Y-59095379D01*
X147849714Y-59087260D01*
X147844211Y-59079071D01*
X147838757Y-59070813D01*
X147833352Y-59062485D01*
X147827997Y-59054087D01*
X147822692Y-59045618D01*
X147817437Y-59037080D01*
X147812231Y-59028471D01*
X147807077Y-59019791D01*
X147801973Y-59011041D01*
X147796919Y-59002221D01*
X147791918Y-58993330D01*
X147786967Y-58984368D01*
X147782069Y-58975336D01*
X147777223Y-58966233D01*
X147772429Y-58957059D01*
X147767689Y-58947815D01*
X147763001Y-58938500D01*
X147758367Y-58929114D01*
X147753787Y-58919659D01*
X147749261Y-58910133D01*
X147744791Y-58900537D01*
X147740375Y-58890871D01*
X147736015Y-58881136D01*
X147731711Y-58871331D01*
X147727463Y-58861457D01*
X147723272Y-58851514D01*
X147719139Y-58841503D01*
X147715064Y-58831424D01*
X147711046Y-58821278D01*
X147707088Y-58811064D01*
X147703189Y-58800784D01*
X147699351Y-58790438D01*
X147695572Y-58780028D01*
X147691855Y-58769552D01*
X147688199Y-58759013D01*
X147684606Y-58748412D01*
X147681075Y-58737749D01*
X147677608Y-58727025D01*
X147674205Y-58716242D01*
X147670867Y-58705401D01*
X147667594Y-58694502D01*
X147664387Y-58683549D01*
X147661247Y-58672541D01*
X147658174Y-58661482D01*
X147655169Y-58650372D01*
X147652234Y-58639215D01*
X147649368Y-58628011D01*
X147646572Y-58616765D01*
X147643848Y-58605477D01*
X147641196Y-58594152D01*
X147638616Y-58582791D01*
X147636111Y-58571400D01*
X147633680Y-58559980D01*
X147631324Y-58548537D01*
X147629045Y-58537075D01*
X147626843Y-58525599D01*
X147624720Y-58514113D01*
X147622675Y-58502625D01*
X147620711Y-58491139D01*
X147618829Y-58479664D01*
X147617028Y-58468208D01*
X147615311Y-58456778D01*
X147613678Y-58445386D01*
X147612131Y-58434042D01*
X147610671Y-58422759D01*
X147609298Y-58411551D01*
X147608015Y-58400435D01*
X147606822Y-58389428D01*
X147605721Y-58378554D01*
X147604712Y-58367838D01*
X147603798Y-58357310D01*
X147602979Y-58347009D01*
X147602258Y-58336980D01*
X147601635Y-58327282D01*
X147601111Y-58317992D01*
X147600688Y-58309215D01*
X147600367Y-58301105D01*
X147600149Y-58293912D01*
X147600030Y-58288110D01*
X147600000Y-58285000D01*
D11*
X134050000Y-127585000D02*
G75*
G02*
X131050000Y-127585000I-1500000J0D01*
G01*
X131050000Y-127585000D02*
G75*
G02*
X134050000Y-127585000I1500000J0D01*
G01*
X172690000Y-124400000D02*
G75*
G02*
X171190000Y-125900000I-1500000J0D01*
G01*
X137880000Y-127595000D02*
G75*
G02*
X134880000Y-127595000I-1500000J0D01*
G01*
X134880000Y-127595000D02*
G75*
G02*
X137880000Y-127595000I1500000J0D01*
G01*
D10*
X125780000Y-127215000D02*
X125779990Y-127206740D01*
X125779960Y-127198516D01*
X125779910Y-127190341D01*
X125779841Y-127182201D01*
X125779752Y-127174110D01*
X125779643Y-127166053D01*
X125779515Y-127158044D01*
X125779368Y-127150070D01*
X125779201Y-127142144D01*
X125779015Y-127134252D01*
X125778811Y-127126407D01*
X125778587Y-127118596D01*
X125778344Y-127110831D01*
X125778083Y-127103101D01*
X125777803Y-127095417D01*
X125777505Y-127087766D01*
X125777188Y-127080161D01*
X125776852Y-127072589D01*
X125776499Y-127065063D01*
X125776127Y-127057570D01*
X125775738Y-127050121D01*
X125775330Y-127042705D01*
X125774904Y-127035334D01*
X125774461Y-127027995D01*
X125774000Y-127020701D01*
X125773521Y-127013438D01*
X125773024Y-127006219D01*
X125772511Y-126999032D01*
X125771980Y-126991889D01*
X125771431Y-126984777D01*
X125770866Y-126977707D01*
X125770283Y-126970670D01*
X125769684Y-126963674D01*
X125769067Y-126956710D01*
X125768434Y-126949787D01*
X125767783Y-126942896D01*
X125767117Y-126936046D01*
X125766433Y-126929227D01*
X125765734Y-126922449D01*
X125765017Y-126915701D01*
X125764285Y-126908994D01*
X125763536Y-126902318D01*
X125762771Y-126895681D01*
X125761990Y-126889074D01*
X125761193Y-126882508D01*
X125760380Y-126875971D01*
X125759552Y-126869473D01*
X125758707Y-126863005D01*
X125757847Y-126856576D01*
X125756971Y-126850176D01*
X125756080Y-126843815D01*
X125755173Y-126837483D01*
X125754251Y-126831189D01*
X125753313Y-126824924D01*
X125752361Y-126818696D01*
X125751392Y-126812498D01*
X125750410Y-126806336D01*
X125749412Y-126800203D01*
X125748399Y-126794107D01*
X125747371Y-126788039D01*
X125746329Y-126782008D01*
X125745271Y-126776004D01*
X125744200Y-126770037D01*
X125743113Y-126764097D01*
X125742012Y-126758194D01*
X125740897Y-126752317D01*
X125739767Y-126746476D01*
X125738623Y-126740663D01*
X125737465Y-126734884D01*
X125736292Y-126729133D01*
X125735106Y-126723415D01*
X125733905Y-126717726D01*
X125732690Y-126712069D01*
X125731461Y-126706440D01*
X125730219Y-126700845D01*
X125728963Y-126695276D01*
X125727693Y-126689740D01*
X125726409Y-126684231D01*
X125725112Y-126678755D01*
X125723801Y-126673305D01*
X125722477Y-126667887D01*
X125721139Y-126662495D01*
X125719788Y-126657136D01*
X125718423Y-126651802D01*
X125717046Y-126646500D01*
X125715655Y-126641224D01*
X125714251Y-126635979D01*
X125712833Y-126630759D01*
X125711404Y-126625571D01*
X125709960Y-126620408D01*
X125708504Y-126615275D01*
X125707035Y-126610167D01*
X125705553Y-126605090D01*
X125704058Y-126600038D01*
X125702551Y-126595015D01*
X125701031Y-126590017D01*
X125699498Y-126585049D01*
X125697952Y-126580105D01*
X125696395Y-126575190D01*
X125694824Y-126570300D01*
X125693241Y-126565438D01*
X125691646Y-126560601D01*
X125690038Y-126555792D01*
X125688418Y-126551007D01*
X125686786Y-126546250D01*
X125685141Y-126541517D01*
X125683485Y-126536811D01*
X125681816Y-126532129D01*
X125680135Y-126527475D01*
X125678441Y-126522844D01*
X125676737Y-126518240D01*
X125675019Y-126513660D01*
X125673290Y-126509105D01*
X125671549Y-126504575D01*
X125669796Y-126500070D01*
X125668031Y-126495589D01*
X125666254Y-126491133D01*
X125664466Y-126486701D01*
X125662666Y-126482293D01*
X125660853Y-126477909D01*
X125659030Y-126473550D01*
X125657194Y-126469214D01*
X125655347Y-126464902D01*
X125653489Y-126460613D01*
X125651618Y-126456348D01*
X125649736Y-126452106D01*
X125647843Y-126447888D01*
X125645938Y-126443692D01*
X125644022Y-126439520D01*
X125642094Y-126435370D01*
X125640154Y-126431243D01*
X125638204Y-126427139D01*
X125636241Y-126423057D01*
X125634268Y-126418998D01*
X125632283Y-126414961D01*
X125630287Y-126410946D01*
X125628279Y-126406953D01*
X125626260Y-126402982D01*
X125624230Y-126399033D01*
X125622188Y-126395106D01*
X125620136Y-126391200D01*
X125618072Y-126387316D01*
X125615996Y-126383453D01*
X125613910Y-126379612D01*
X125611812Y-126375791D01*
X125609703Y-126371992D01*
X125607583Y-126368214D01*
X125605452Y-126364456D01*
X125603309Y-126360719D01*
X125601156Y-126357004D01*
X125598991Y-126353308D01*
X125596815Y-126349633D01*
X125594627Y-126345978D01*
X125592429Y-126342344D01*
X125590219Y-126338729D01*
X125587999Y-126335135D01*
X125585767Y-126331560D01*
X125583524Y-126328006D01*
X125581270Y-126324470D01*
X125579005Y-126320956D01*
X125576728Y-126317459D01*
X125574441Y-126313983D01*
X125572142Y-126310526D01*
X125569832Y-126307089D01*
X125567510Y-126303669D01*
X125565179Y-126300271D01*
X125562835Y-126296889D01*
X125560480Y-126293528D01*
X125558114Y-126290184D01*
X125555737Y-126286861D01*
X125553348Y-126283554D01*
X125550949Y-126280268D01*
X125548537Y-126276998D01*
X125546116Y-126273749D01*
X125543681Y-126270516D01*
X125541237Y-126267303D01*
X125536313Y-126260928D01*
X125531344Y-126254626D01*
X125526329Y-126248394D01*
X125521268Y-126242233D01*
X125516161Y-126236141D01*
X125511008Y-126230118D01*
X125505808Y-126224163D01*
X125500562Y-126218276D01*
X125495268Y-126212457D01*
X125489928Y-126206703D01*
X125484539Y-126201016D01*
X125479103Y-126195394D01*
X125473618Y-126189837D01*
X125468085Y-126184344D01*
X125462502Y-126178915D01*
X125456871Y-126173549D01*
X125451189Y-126168246D01*
X125445457Y-126163005D01*
X125439675Y-126157826D01*
X125433842Y-126152708D01*
X125427957Y-126147651D01*
X125422019Y-126142655D01*
X125416030Y-126137718D01*
X125409987Y-126132841D01*
X125403891Y-126128023D01*
X125397740Y-126123265D01*
X125391534Y-126118564D01*
X125385273Y-126113922D01*
X125378956Y-126109337D01*
X125372583Y-126104810D01*
X125366151Y-126100339D01*
X125359662Y-126095926D01*
X125353114Y-126091569D01*
X125346506Y-126087268D01*
X125339838Y-126083023D01*
X125333109Y-126078833D01*
X125326317Y-126074699D01*
X125319463Y-126070621D01*
X125312545Y-126066597D01*
X125305563Y-126062627D01*
X125298515Y-126058712D01*
X125291400Y-126054852D01*
X125284218Y-126051045D01*
X125276968Y-126047293D01*
X125269648Y-126043594D01*
X125262257Y-126039949D01*
X125254795Y-126036358D01*
X125247259Y-126032820D01*
X125239650Y-126029335D01*
X125231964Y-126025903D01*
X125224203Y-126022524D01*
X125216363Y-126019199D01*
X125208444Y-126015926D01*
X125200443Y-126012706D01*
X125192361Y-126009539D01*
X125184194Y-126006425D01*
X125175942Y-126003363D01*
X125167603Y-126000354D01*
X125159175Y-125997398D01*
X125150656Y-125994494D01*
X125142045Y-125991643D01*
X125133339Y-125988844D01*
X125124536Y-125986099D01*
X125115635Y-125983405D01*
X125106632Y-125980765D01*
X125097526Y-125978177D01*
X125088314Y-125975642D01*
X125078994Y-125973159D01*
X125069562Y-125970730D01*
X125060015Y-125968353D01*
X125050352Y-125966029D01*
X125040568Y-125963758D01*
X125030660Y-125961539D01*
X125020624Y-125959374D01*
X125010457Y-125957262D01*
X125000153Y-125955202D01*
X124989709Y-125953196D01*
X124979120Y-125951243D01*
X124968381Y-125949343D01*
X124957486Y-125947496D01*
X124946428Y-125945702D01*
X124935202Y-125943962D01*
X124923799Y-125942274D01*
X124912213Y-125940640D01*
X124900434Y-125939058D01*
X124888453Y-125937530D01*
X124876259Y-125936054D01*
X124863840Y-125934631D01*
X124851183Y-125933260D01*
X124838272Y-125931941D01*
X124825091Y-125930675D01*
X124811619Y-125929459D01*
X124797833Y-125928295D01*
X124783707Y-125927182D01*
X124769209Y-125926118D01*
X124754301Y-125925103D01*
X124738936Y-125924136D01*
X124723057Y-125923215D01*
X124706592Y-125922339D01*
X124689447Y-125921505D01*
X124671495Y-125920709D01*
X124652559Y-125919948D01*
X124632381Y-125919214D01*
X124610545Y-125918495D01*
X124586312Y-125917773D01*
X124558087Y-125917004D01*
X124522742Y-125916100D01*
X124501290Y-125915556D01*
X124480000Y-125915000D01*
D11*
X171190000Y-59590000D02*
X148910000Y-59595000D01*
X157030000Y-127585000D02*
G75*
G02*
X154030000Y-127585000I-1500000J0D01*
G01*
X154030000Y-127585000D02*
G75*
G02*
X157030000Y-127585000I1500000J0D01*
G01*
D10*
X147600000Y-53535000D02*
X147599942Y-53528957D01*
X147599864Y-53522932D01*
X147599766Y-53516926D01*
X147599648Y-53510939D01*
X147599511Y-53504969D01*
X147599354Y-53499019D01*
X147599178Y-53493086D01*
X147598983Y-53487171D01*
X147598768Y-53481275D01*
X147598533Y-53475397D01*
X147598280Y-53469536D01*
X147598007Y-53463694D01*
X147597715Y-53457870D01*
X147597404Y-53452064D01*
X147597074Y-53446275D01*
X147596725Y-53440504D01*
X147596357Y-53434750D01*
X147595970Y-53429015D01*
X147595564Y-53423297D01*
X147595140Y-53417596D01*
X147594696Y-53411913D01*
X147594234Y-53406247D01*
X147593754Y-53400598D01*
X147593255Y-53394968D01*
X147592737Y-53389353D01*
X147592201Y-53383757D01*
X147591647Y-53378176D01*
X147591074Y-53372614D01*
X147590483Y-53367068D01*
X147589873Y-53361539D01*
X147589246Y-53356027D01*
X147588600Y-53350532D01*
X147587936Y-53345053D01*
X147587254Y-53339592D01*
X147586553Y-53334146D01*
X147585835Y-53328718D01*
X147585099Y-53323306D01*
X147584345Y-53317911D01*
X147583573Y-53312531D01*
X147582784Y-53307169D01*
X147581976Y-53301822D01*
X147581151Y-53296492D01*
X147580308Y-53291177D01*
X147579448Y-53285880D01*
X147578570Y-53280597D01*
X147577674Y-53275332D01*
X147576761Y-53270082D01*
X147575830Y-53264849D01*
X147574882Y-53259630D01*
X147573916Y-53254428D01*
X147572933Y-53249241D01*
X147571933Y-53244071D01*
X147570915Y-53238915D01*
X147569880Y-53233776D01*
X147568828Y-53228651D01*
X147567759Y-53223544D01*
X147566672Y-53218450D01*
X147565569Y-53213373D01*
X147564448Y-53208310D01*
X147563310Y-53203264D01*
X147562155Y-53198231D01*
X147560984Y-53193215D01*
X147559795Y-53188213D01*
X147558589Y-53183227D01*
X147557366Y-53178255D01*
X147556127Y-53173300D01*
X147554870Y-53168357D01*
X147553598Y-53163432D01*
X147552307Y-53158518D01*
X147551001Y-53153623D01*
X147549677Y-53148739D01*
X147548338Y-53143873D01*
X147546980Y-53139018D01*
X147545607Y-53134181D01*
X147544217Y-53129356D01*
X147542811Y-53124548D01*
X147539948Y-53114973D01*
X147537019Y-53105454D01*
X147534024Y-53095993D01*
X147530963Y-53086589D01*
X147527837Y-53077240D01*
X147524645Y-53067948D01*
X147521388Y-53058711D01*
X147518066Y-53049529D01*
X147514679Y-53040402D01*
X147511227Y-53031330D01*
X147507710Y-53022311D01*
X147504129Y-53013347D01*
X147500483Y-53004436D01*
X147496773Y-52995578D01*
X147492998Y-52986772D01*
X147489159Y-52978020D01*
X147485256Y-52969319D01*
X147481289Y-52960670D01*
X147477257Y-52952073D01*
X147473162Y-52943527D01*
X147469002Y-52935032D01*
X147464779Y-52926588D01*
X147460491Y-52918194D01*
X147456140Y-52909850D01*
X147451725Y-52901556D01*
X147447245Y-52893311D01*
X147442702Y-52885116D01*
X147438095Y-52876970D01*
X147433423Y-52868873D01*
X147428688Y-52860825D01*
X147423888Y-52852825D01*
X147419025Y-52844873D01*
X147414097Y-52836968D01*
X147409105Y-52829112D01*
X147404049Y-52821303D01*
X147398928Y-52813541D01*
X147393743Y-52805827D01*
X147388493Y-52798159D01*
X147383179Y-52790539D01*
X147377800Y-52782964D01*
X147372356Y-52775436D01*
X147366847Y-52767955D01*
X147361272Y-52760519D01*
X147355633Y-52753130D01*
X147349929Y-52745786D01*
X147344158Y-52738488D01*
X147338323Y-52731236D01*
X147332421Y-52724029D01*
X147326454Y-52716867D01*
X147320420Y-52709751D01*
X147314321Y-52702680D01*
X147308154Y-52695654D01*
X147301922Y-52688673D01*
X147295622Y-52681737D01*
X147289256Y-52674846D01*
X147282822Y-52668000D01*
X147276322Y-52661199D01*
X147269753Y-52654442D01*
X147263118Y-52647731D01*
X147256414Y-52641064D01*
X147249642Y-52634442D01*
X147242802Y-52627864D01*
X147235894Y-52621332D01*
X147228916Y-52614844D01*
X147221871Y-52608401D01*
X147214756Y-52602003D01*
X147207571Y-52595650D01*
X147200318Y-52589342D01*
X147192994Y-52583079D01*
X147185601Y-52576861D01*
X147178138Y-52570689D01*
X147170605Y-52564562D01*
X147163001Y-52558480D01*
X147155326Y-52552444D01*
X147147581Y-52546453D01*
X147139765Y-52540508D01*
X147131877Y-52534610D01*
X147123918Y-52528757D01*
X147115888Y-52522951D01*
X147107786Y-52517191D01*
X147099611Y-52511478D01*
X147091365Y-52505812D01*
X147083047Y-52500193D01*
X147074657Y-52494621D01*
X147066194Y-52489096D01*
X147057658Y-52483620D01*
X147049050Y-52478191D01*
X147040369Y-52472811D01*
X147031615Y-52467479D01*
X147022788Y-52462196D01*
X147013888Y-52456962D01*
X147004915Y-52451778D01*
X146995869Y-52446643D01*
X146986749Y-52441558D01*
X146977557Y-52436524D01*
X146968292Y-52431540D01*
X146958953Y-52426608D01*
X146949542Y-52421727D01*
X146940058Y-52416898D01*
X146930501Y-52412121D01*
X146920871Y-52407397D01*
X146911169Y-52402726D01*
X146901395Y-52398108D01*
X146891548Y-52393544D01*
X146881630Y-52389035D01*
X146871641Y-52384581D01*
X146861580Y-52380182D01*
X146851449Y-52375839D01*
X146841247Y-52371552D01*
X146830975Y-52367322D01*
X146820635Y-52363150D01*
X146810225Y-52359035D01*
X146799748Y-52354979D01*
X146789203Y-52350982D01*
X146778592Y-52347045D01*
X146767915Y-52343169D01*
X146757173Y-52339353D01*
X146746367Y-52335599D01*
X146735499Y-52331907D01*
X146724569Y-52328278D01*
X146713579Y-52324712D01*
X146702529Y-52321211D01*
X146691423Y-52317775D01*
X146680261Y-52314404D01*
X146669044Y-52311101D01*
X146657776Y-52307864D01*
X146646457Y-52304695D01*
X146635091Y-52301596D01*
X146623679Y-52298566D01*
X146612225Y-52295606D01*
X146600730Y-52292718D01*
X146589198Y-52289902D01*
X146577633Y-52287160D01*
X146566038Y-52284491D01*
X146554417Y-52281898D01*
X146542774Y-52279381D01*
X146531113Y-52276940D01*
X146519441Y-52274578D01*
X146507761Y-52272295D01*
X146496081Y-52270092D01*
X146484406Y-52267970D01*
X146472745Y-52265931D01*
X146461103Y-52263975D01*
X146449492Y-52262104D01*
X146437919Y-52260318D01*
X146426395Y-52258620D01*
X146414932Y-52257010D01*
X146403542Y-52255489D01*
X146392241Y-52254059D01*
X146381042Y-52252721D01*
X146369966Y-52251476D01*
X146359030Y-52250325D01*
X146348257Y-52249270D01*
X146337673Y-52248311D01*
X146327306Y-52247450D01*
X146317187Y-52246687D01*
X146307352Y-52246024D01*
X146297843Y-52245459D01*
X146288704Y-52244994D01*
X146284273Y-52244798D01*
X146279988Y-52244627D01*
X146275793Y-52244480D01*
X146271752Y-52244357D01*
X146267823Y-52244257D01*
X146264057Y-52244181D01*
X146260428Y-52244127D01*
X146256970Y-52244095D01*
X146253676Y-52244084D01*
X146250556Y-52244093D01*
X146247630Y-52244121D01*
X146244881Y-52244167D01*
X146242350Y-52244229D01*
X146239994Y-52244307D01*
X146237876Y-52244396D01*
X146235927Y-52244498D01*
X146234225Y-52244607D01*
X146232680Y-52244726D01*
X146231379Y-52244846D01*
X146230217Y-52244973D01*
X146230000Y-52245000D01*
X158389961Y-151675000D02*
X158389951Y-151682256D01*
X158389921Y-151689488D01*
X158389871Y-151696699D01*
X158389802Y-151703886D01*
X158389712Y-151711052D01*
X158389603Y-151718194D01*
X158389474Y-151725315D01*
X158389326Y-151732413D01*
X158389158Y-151739489D01*
X158388971Y-151746543D01*
X158388765Y-151753574D01*
X158388539Y-151760584D01*
X158388293Y-151767572D01*
X158388029Y-151774537D01*
X158387745Y-151781481D01*
X158387443Y-151788403D01*
X158387121Y-151795303D01*
X158386780Y-151802182D01*
X158386421Y-151809039D01*
X158386042Y-151815874D01*
X158385645Y-151822688D01*
X158385229Y-151829480D01*
X158384794Y-151836252D01*
X158384341Y-151843001D01*
X158383869Y-151849730D01*
X158383379Y-151856437D01*
X158382870Y-151863123D01*
X158382342Y-151869788D01*
X158381796Y-151876433D01*
X158381232Y-151883055D01*
X158380650Y-151889658D01*
X158380050Y-151896239D01*
X158379431Y-151902800D01*
X158378794Y-151909339D01*
X158378139Y-151915859D01*
X158377467Y-151922357D01*
X158376776Y-151928836D01*
X158376067Y-151935293D01*
X158375341Y-151941731D01*
X158374596Y-151948147D01*
X158373834Y-151954545D01*
X158373055Y-151960920D01*
X158372257Y-151967277D01*
X158371442Y-151973613D01*
X158370610Y-151979929D01*
X158369760Y-151986225D01*
X158368892Y-151992501D01*
X158368007Y-151998757D01*
X158367105Y-152004994D01*
X158366186Y-152011210D01*
X158365249Y-152017407D01*
X158364295Y-152023584D01*
X158363324Y-152029742D01*
X158362335Y-152035879D01*
X158361330Y-152041999D01*
X158360307Y-152048097D01*
X158359268Y-152054178D01*
X158358212Y-152060237D01*
X158357138Y-152066279D01*
X158356048Y-152072300D01*
X158354941Y-152078304D01*
X158353817Y-152084287D01*
X158352677Y-152090252D01*
X158351520Y-152096197D01*
X158350346Y-152102125D01*
X158349155Y-152108032D01*
X158347948Y-152113922D01*
X158346725Y-152119791D01*
X158345485Y-152125644D01*
X158344228Y-152131476D01*
X158342955Y-152137291D01*
X158341666Y-152143086D01*
X158340360Y-152148865D01*
X158339039Y-152154623D01*
X158337700Y-152160364D01*
X158336346Y-152166085D01*
X158334975Y-152171791D01*
X158333589Y-152177475D01*
X158332185Y-152183144D01*
X158330767Y-152188792D01*
X158329332Y-152194425D01*
X158327881Y-152200037D01*
X158326414Y-152205634D01*
X158324931Y-152211210D01*
X158323432Y-152216771D01*
X158321917Y-152222312D01*
X158320387Y-152227837D01*
X158318841Y-152233342D01*
X158317278Y-152238833D01*
X158315701Y-152244302D01*
X158314107Y-152249758D01*
X158312498Y-152255192D01*
X158310872Y-152260613D01*
X158309232Y-152266013D01*
X158307576Y-152271398D01*
X158305905Y-152276763D01*
X158304217Y-152282114D01*
X158302515Y-152287445D01*
X158300796Y-152292762D01*
X158299063Y-152298059D01*
X158297313Y-152303341D01*
X158295549Y-152308604D01*
X158293769Y-152313852D01*
X158291974Y-152319081D01*
X158290163Y-152324296D01*
X158288338Y-152329491D01*
X158284641Y-152339834D01*
X158280883Y-152350110D01*
X158277064Y-152360320D01*
X158273184Y-152370464D01*
X158269245Y-152380543D01*
X158265245Y-152390556D01*
X158261185Y-152400505D01*
X158257066Y-152410389D01*
X158252886Y-152420209D01*
X158248648Y-152429965D01*
X158244350Y-152439658D01*
X158239992Y-152449288D01*
X158235576Y-152458855D01*
X158231100Y-152468359D01*
X158226566Y-152477802D01*
X158221973Y-152487182D01*
X158217321Y-152496501D01*
X158212610Y-152505759D01*
X158207841Y-152514956D01*
X158203014Y-152524093D01*
X158198128Y-152533169D01*
X158193184Y-152542185D01*
X158188182Y-152551142D01*
X158183122Y-152560039D01*
X158178004Y-152568877D01*
X158172827Y-152577656D01*
X158167593Y-152586376D01*
X158162301Y-152595038D01*
X158156950Y-152603642D01*
X158151542Y-152612188D01*
X158146076Y-152620676D01*
X158140552Y-152629107D01*
X158134971Y-152637481D01*
X158129331Y-152645798D01*
X158123634Y-152654058D01*
X158117878Y-152662261D01*
X158112065Y-152670409D01*
X158106194Y-152678500D01*
X158100265Y-152686535D01*
X158094278Y-152694514D01*
X158088234Y-152702438D01*
X158082131Y-152710306D01*
X158075970Y-152718119D01*
X158069751Y-152725877D01*
X158063474Y-152733580D01*
X158057139Y-152741228D01*
X158050746Y-152748821D01*
X158044294Y-152756360D01*
X158037784Y-152763844D01*
X158031216Y-152771275D01*
X158024589Y-152778650D01*
X158017904Y-152785972D01*
X158011160Y-152793240D01*
X158004357Y-152800454D01*
X157997496Y-152807614D01*
X157990576Y-152814720D01*
X157983597Y-152821772D01*
X157976559Y-152828771D01*
X157969461Y-152835716D01*
X157962305Y-152842608D01*
X157955089Y-152849446D01*
X157947814Y-152856230D01*
X157940480Y-152862961D01*
X157933086Y-152869638D01*
X157925632Y-152876262D01*
X157918119Y-152882833D01*
X157910546Y-152889349D01*
X157902913Y-152895812D01*
X157895220Y-152902222D01*
X157887467Y-152908578D01*
X157879654Y-152914880D01*
X157871781Y-152921128D01*
X157863848Y-152927323D01*
X157855854Y-152933463D01*
X157847800Y-152939550D01*
X157839685Y-152945582D01*
X157831510Y-152951560D01*
X157823274Y-152957484D01*
X157814977Y-152963353D01*
X157806620Y-152969168D01*
X157798202Y-152974928D01*
X157789724Y-152980633D01*
X157781185Y-152986283D01*
X157772584Y-152991878D01*
X157763924Y-152997417D01*
X157755202Y-153002900D01*
X157746420Y-153008328D01*
X157737577Y-153013700D01*
X157728673Y-153019015D01*
X157719709Y-153024274D01*
X157710684Y-153029476D01*
X157701599Y-153034621D01*
X157692454Y-153039709D01*
X157683248Y-153044740D01*
X157673982Y-153049712D01*
X157664657Y-153054627D01*
X157655272Y-153059483D01*
X157645827Y-153064280D01*
X157636323Y-153069018D01*
X157626760Y-153073697D01*
X157617138Y-153078316D01*
X157607458Y-153082874D01*
X157597720Y-153087373D01*
X157587924Y-153091810D01*
X157578071Y-153096186D01*
X157568161Y-153100501D01*
X157558194Y-153104753D01*
X157548172Y-153108943D01*
X157538095Y-153113070D01*
X157527963Y-153117134D01*
X157517777Y-153121133D01*
X157507539Y-153125068D01*
X157497247Y-153128939D01*
X157486905Y-153132744D01*
X157476511Y-153136483D01*
X157466069Y-153140155D01*
X157455577Y-153143761D01*
X157445039Y-153147299D01*
X157434454Y-153150769D01*
X157423825Y-153154170D01*
X157413152Y-153157502D01*
X157402438Y-153160764D01*
X157391684Y-153163955D01*
X157380892Y-153167076D01*
X157370063Y-153170124D01*
X157359201Y-153173100D01*
X157348307Y-153176002D01*
X157337384Y-153178831D01*
X157326434Y-153181585D01*
X157315461Y-153184263D01*
X157304467Y-153186866D01*
X157293456Y-153189391D01*
X157282432Y-153191839D01*
X157271399Y-153194208D01*
X157260362Y-153196497D01*
X157249324Y-153198707D01*
X157238292Y-153200835D01*
X157227271Y-153202881D01*
X157216269Y-153204844D01*
X157205291Y-153206723D01*
X157194346Y-153208517D01*
X157183442Y-153210225D01*
X157172590Y-153211846D01*
X157161801Y-153213380D01*
X157151086Y-153214824D01*
X157140461Y-153216178D01*
X157129941Y-153217441D01*
X157119545Y-153218611D01*
X157109296Y-153219687D01*
X157099218Y-153220669D01*
X157089343Y-153221555D01*
X157079709Y-153222343D01*
X157070363Y-153223033D01*
X157061365Y-153223622D01*
X157052796Y-153224111D01*
X157044767Y-153224498D01*
X157037449Y-153224782D01*
X157031127Y-153224964D01*
X157026408Y-153225047D01*
X157025000Y-153225057D01*
D11*
X136490000Y-53525000D02*
X136490000Y-58285000D01*
X113860000Y-125900000D02*
X124480000Y-125915000D01*
X113860000Y-125900000D02*
G75*
G02*
X112360000Y-124400000I0J1500000D01*
G01*
X130230000Y-127585000D02*
G75*
G02*
X127230000Y-127585000I-1500000J0D01*
G01*
X127230000Y-127585000D02*
G75*
G02*
X130230000Y-127585000I1500000J0D01*
G01*
X125780000Y-127215000D02*
X125780000Y-151705000D01*
X158390000Y-127195000D02*
G75*
G02*
X159680000Y-125905000I1290000J0D01*
G01*
X145540000Y-127575000D02*
G75*
G02*
X142540000Y-127575000I-1500000J0D01*
G01*
X142540000Y-127575000D02*
G75*
G02*
X145540000Y-127575000I1500000J0D01*
G01*
X171190000Y-125900000D02*
X159680000Y-125905000D01*
X141710000Y-127585000D02*
G75*
G02*
X138710000Y-127585000I-1500000J0D01*
G01*
X138710000Y-127585000D02*
G75*
G02*
X141710000Y-127585000I1500000J0D01*
G01*
X171190000Y-59590000D02*
G75*
G02*
X172690000Y-61090000I0J-1500000D01*
G01*
D10*
X136490000Y-58285000D02*
X136489990Y-58291188D01*
X136489960Y-58297356D01*
X136489910Y-58303505D01*
X136489841Y-58309634D01*
X136489751Y-58315745D01*
X136489642Y-58321836D01*
X136489514Y-58327908D01*
X136489365Y-58333961D01*
X136489198Y-58339995D01*
X136489010Y-58346010D01*
X136488804Y-58352007D01*
X136488578Y-58357984D01*
X136488333Y-58363943D01*
X136488068Y-58369883D01*
X136487785Y-58375805D01*
X136487482Y-58381707D01*
X136487160Y-58387592D01*
X136486820Y-58393458D01*
X136486460Y-58399306D01*
X136486081Y-58405134D01*
X136485684Y-58410946D01*
X136485268Y-58416738D01*
X136484833Y-58422513D01*
X136484380Y-58428270D01*
X136483908Y-58434009D01*
X136483417Y-58439729D01*
X136482908Y-58445432D01*
X136482380Y-58451116D01*
X136481834Y-58456784D01*
X136481270Y-58462433D01*
X136480687Y-58468065D01*
X136480086Y-58473679D01*
X136479467Y-58479276D01*
X136478830Y-58484855D01*
X136478175Y-58490417D01*
X136477501Y-58495961D01*
X136476810Y-58501488D01*
X136476100Y-58506997D01*
X136475373Y-58512491D01*
X136474628Y-58517965D01*
X136473865Y-58523424D01*
X136473084Y-58528865D01*
X136472286Y-58534290D01*
X136471469Y-58539697D01*
X136470636Y-58545088D01*
X136469784Y-58550461D01*
X136468915Y-58555819D01*
X136468029Y-58561159D01*
X136467125Y-58566484D01*
X136466203Y-58571790D01*
X136465264Y-58577082D01*
X136464308Y-58582355D01*
X136463335Y-58587614D01*
X136462344Y-58592854D01*
X136461336Y-58598080D01*
X136460311Y-58603288D01*
X136459268Y-58608482D01*
X136458209Y-58613658D01*
X136457132Y-58618820D01*
X136456039Y-58623963D01*
X136454928Y-58629093D01*
X136453801Y-58634204D01*
X136452656Y-58639302D01*
X136451495Y-58644382D01*
X136450316Y-58649449D01*
X136449121Y-58654497D01*
X136447909Y-58659532D01*
X136446681Y-58664550D01*
X136445435Y-58669554D01*
X136444173Y-58674540D01*
X136442894Y-58679513D01*
X136441598Y-58684468D01*
X136440286Y-58689411D01*
X136438958Y-58694335D01*
X136437612Y-58699247D01*
X136436250Y-58704141D01*
X136434872Y-58709023D01*
X136433477Y-58713887D01*
X136432066Y-58718739D01*
X136430638Y-58723573D01*
X136429194Y-58728394D01*
X136427734Y-58733198D01*
X136424764Y-58742765D01*
X136421729Y-58752272D01*
X136418628Y-58761721D01*
X136415463Y-58771112D01*
X136412234Y-58780445D01*
X136408939Y-58789721D01*
X136405581Y-58798939D01*
X136402158Y-58808101D01*
X136398671Y-58817207D01*
X136395120Y-58826256D01*
X136391505Y-58835250D01*
X136387827Y-58844189D01*
X136384085Y-58853072D01*
X136380279Y-58861901D01*
X136376410Y-58870676D01*
X136372478Y-58879397D01*
X136368482Y-58888064D01*
X136364423Y-58896678D01*
X136360301Y-58905239D01*
X136356115Y-58913747D01*
X136351867Y-58922203D01*
X136347556Y-58930606D01*
X136343181Y-58938958D01*
X136338744Y-58947258D01*
X136334243Y-58955507D01*
X136329680Y-58963705D01*
X136325053Y-58971852D01*
X136320363Y-58979949D01*
X136315611Y-58987995D01*
X136310795Y-58995992D01*
X136305916Y-59003939D01*
X136300974Y-59011836D01*
X136295969Y-59019684D01*
X136290900Y-59027482D01*
X136285768Y-59035232D01*
X136280573Y-59042934D01*
X136275314Y-59050586D01*
X136269992Y-59058191D01*
X136264606Y-59065747D01*
X136259156Y-59073256D01*
X136253642Y-59080717D01*
X136248064Y-59088130D01*
X136242423Y-59095495D01*
X136236717Y-59102814D01*
X136230946Y-59110085D01*
X136225112Y-59117309D01*
X136219212Y-59124486D01*
X136213248Y-59131617D01*
X136207219Y-59138701D01*
X136201125Y-59145738D01*
X136194966Y-59152729D01*
X136188741Y-59159673D01*
X136182451Y-59166571D01*
X136176095Y-59173423D01*
X136169673Y-59180228D01*
X136163185Y-59186988D01*
X136156631Y-59193701D01*
X136150011Y-59200368D01*
X136143323Y-59206989D01*
X136136570Y-59213564D01*
X136129749Y-59220093D01*
X136122861Y-59226576D01*
X136115905Y-59233013D01*
X136108882Y-59239404D01*
X136101791Y-59245749D01*
X136094633Y-59252047D01*
X136087406Y-59258300D01*
X136080111Y-59264506D01*
X136072747Y-59270665D01*
X136065315Y-59276779D01*
X136057813Y-59282846D01*
X136050243Y-59288866D01*
X136042603Y-59294840D01*
X136034893Y-59300767D01*
X136027114Y-59306647D01*
X136019265Y-59312480D01*
X136011346Y-59318266D01*
X136003357Y-59324004D01*
X135995297Y-59329695D01*
X135987167Y-59335338D01*
X135978966Y-59340933D01*
X135970694Y-59346481D01*
X135962351Y-59351980D01*
X135953937Y-59357430D01*
X135945452Y-59362832D01*
X135936895Y-59368185D01*
X135928266Y-59373489D01*
X135919567Y-59378743D01*
X135910795Y-59383948D01*
X135901952Y-59389103D01*
X135893036Y-59394207D01*
X135884049Y-59399261D01*
X135874990Y-59404264D01*
X135865859Y-59409216D01*
X135856657Y-59414116D01*
X135847382Y-59418964D01*
X135838036Y-59423760D01*
X135828617Y-59428504D01*
X135819127Y-59433194D01*
X135809566Y-59437832D01*
X135799933Y-59442415D01*
X135790229Y-59446944D01*
X135780454Y-59451419D01*
X135770609Y-59455838D01*
X135760693Y-59460203D01*
X135750706Y-59464511D01*
X135740650Y-59468763D01*
X135730525Y-59472957D01*
X135720330Y-59477095D01*
X135710068Y-59481174D01*
X135699737Y-59485195D01*
X135689339Y-59489157D01*
X135678874Y-59493060D01*
X135668343Y-59496902D01*
X135657748Y-59500684D01*
X135647088Y-59504404D01*
X135636364Y-59508063D01*
X135625579Y-59511659D01*
X135614732Y-59515192D01*
X135603825Y-59518661D01*
X135592860Y-59522065D01*
X135581838Y-59525404D01*
X135570760Y-59528678D01*
X135559628Y-59531884D01*
X135548444Y-59535024D01*
X135537210Y-59538095D01*
X135525929Y-59541098D01*
X135514601Y-59544030D01*
X135503231Y-59546893D01*
X135491821Y-59549684D01*
X135480374Y-59552402D01*
X135468892Y-59555048D01*
X135457381Y-59557620D01*
X135445844Y-59560117D01*
X135434284Y-59562538D01*
X135422707Y-59564883D01*
X135411119Y-59567149D01*
X135399523Y-59569337D01*
X135387928Y-59571445D01*
X135376340Y-59573473D01*
X135364766Y-59575418D01*
X135353214Y-59577280D01*
X135341696Y-59579058D01*
X135330221Y-59580750D01*
X135318801Y-59582356D01*
X135307449Y-59583873D01*
X135296182Y-59585301D01*
X135285018Y-59586638D01*
X135273976Y-59587883D01*
X135263082Y-59589034D01*
X135252364Y-59590090D01*
X135241857Y-59591049D01*
X135231603Y-59591909D01*
X135221656Y-59592669D01*
X135212085Y-59593325D01*
X135202982Y-59593877D01*
X135194479Y-59594322D01*
X135186780Y-59594657D01*
X135180243Y-59594880D01*
X135175705Y-59594988D01*
X135175113Y-59594998D01*
X135175000Y-59595000D01*
D11*
X135175000Y-59595000D02*
X113860000Y-59600000D01*
X158389961Y-151675000D02*
X158390005Y-127198589D01*
X149370000Y-127585000D02*
G75*
G02*
X146370000Y-127585000I-1500000J0D01*
G01*
X146370000Y-127585000D02*
G75*
G02*
X149370000Y-127585000I1500000J0D01*
G01*
X146230000Y-52245000D02*
X137800000Y-52245000D01*
X112360000Y-61100000D02*
X112360000Y-124400000D01*
X112360000Y-61100000D02*
G75*
G02*
X113860000Y-59600000I1500000J0D01*
G01*
X147600000Y-58285000D02*
X147600000Y-53535000D01*
D10*
X127015000Y-153224942D02*
X127009046Y-153223814D01*
X127003112Y-153222670D01*
X126997193Y-153221508D01*
X126991293Y-153220330D01*
X126985408Y-153219134D01*
X126979542Y-153217922D01*
X126973691Y-153216692D01*
X126967859Y-153215446D01*
X126962042Y-153214183D01*
X126956244Y-153212904D01*
X126950460Y-153211607D01*
X126944696Y-153210294D01*
X126938945Y-153208964D01*
X126933214Y-153207618D01*
X126927497Y-153206255D01*
X126921799Y-153204875D01*
X126916115Y-153203479D01*
X126910450Y-153202066D01*
X126904799Y-153200637D01*
X126899167Y-153199192D01*
X126893549Y-153197729D01*
X126887949Y-153196251D01*
X126882363Y-153194756D01*
X126876796Y-153193245D01*
X126871242Y-153191717D01*
X126865707Y-153190174D01*
X126860185Y-153188613D01*
X126854682Y-153187038D01*
X126849193Y-153185445D01*
X126843722Y-153183837D01*
X126838263Y-153182211D01*
X126832824Y-153180571D01*
X126827397Y-153178914D01*
X126821990Y-153177241D01*
X126816594Y-153175551D01*
X126811218Y-153173847D01*
X126800508Y-153170389D01*
X126789860Y-153166867D01*
X126779274Y-153163281D01*
X126768749Y-153159632D01*
X126758285Y-153155919D01*
X126747882Y-153152144D01*
X126737538Y-153148305D01*
X126727255Y-153144403D01*
X126717031Y-153140439D01*
X126706866Y-153136412D01*
X126696760Y-153132323D01*
X126686713Y-153128171D01*
X126676724Y-153123957D01*
X126666793Y-153119681D01*
X126656920Y-153115343D01*
X126647103Y-153110943D01*
X126637344Y-153106481D01*
X126627642Y-153101958D01*
X126617996Y-153097372D01*
X126608406Y-153092725D01*
X126598872Y-153088017D01*
X126589394Y-153083247D01*
X126579971Y-153078415D01*
X126570603Y-153073522D01*
X126561290Y-153068568D01*
X126552031Y-153063553D01*
X126542826Y-153058476D01*
X126533676Y-153053337D01*
X126524579Y-153048138D01*
X126515536Y-153042877D01*
X126506547Y-153037555D01*
X126497610Y-153032172D01*
X126488726Y-153026727D01*
X126479895Y-153021221D01*
X126471116Y-153015654D01*
X126462390Y-153010026D01*
X126453715Y-153004336D01*
X126445093Y-152998585D01*
X126436521Y-152992772D01*
X126428002Y-152986898D01*
X126419534Y-152980962D01*
X126411116Y-152974965D01*
X126402750Y-152968906D01*
X126394434Y-152962785D01*
X126386169Y-152956603D01*
X126377955Y-152950359D01*
X126369791Y-152944053D01*
X126361677Y-152937684D01*
X126353613Y-152931254D01*
X126345599Y-152924762D01*
X126337634Y-152918207D01*
X126329720Y-152911590D01*
X126321855Y-152904910D01*
X126314039Y-152898168D01*
X126306273Y-152891363D01*
X126298557Y-152884495D01*
X126290889Y-152877564D01*
X126283271Y-152870571D01*
X126275701Y-152863514D01*
X126268181Y-152856393D01*
X126260710Y-152849210D01*
X126253287Y-152841963D01*
X126245914Y-152834652D01*
X126238589Y-152827277D01*
X126231314Y-152819838D01*
X126224087Y-152812335D01*
X126216909Y-152804768D01*
X126209780Y-152797137D01*
X126202699Y-152789441D01*
X126195668Y-152781681D01*
X126188685Y-152773855D01*
X126181751Y-152765965D01*
X126174866Y-152758010D01*
X126168030Y-152749989D01*
X126161243Y-152741903D01*
X126154506Y-152733752D01*
X126147817Y-152725535D01*
X126141177Y-152717252D01*
X126134587Y-152708903D01*
X126128047Y-152700488D01*
X126121555Y-152692007D01*
X126115114Y-152683460D01*
X126108722Y-152674846D01*
X126102380Y-152666166D01*
X126096088Y-152657419D01*
X126089846Y-152648606D01*
X126083654Y-152639725D01*
X126077513Y-152630778D01*
X126071422Y-152621763D01*
X126065382Y-152612681D01*
X126059393Y-152603532D01*
X126053455Y-152594316D01*
X126047569Y-152585032D01*
X126041734Y-152575681D01*
X126035951Y-152566263D01*
X126030220Y-152556777D01*
X126024541Y-152547223D01*
X126018914Y-152537602D01*
X126013341Y-152527913D01*
X126007820Y-152518157D01*
X126002352Y-152508333D01*
X125996938Y-152498442D01*
X125991578Y-152488483D01*
X125986272Y-152478457D01*
X125981021Y-152468364D01*
X125975824Y-152458204D01*
X125970682Y-152447976D01*
X125965596Y-152437682D01*
X125960565Y-152427321D01*
X125955591Y-152416894D01*
X125950673Y-152406400D01*
X125945812Y-152395840D01*
X125941009Y-152385215D01*
X125936262Y-152374524D01*
X125931575Y-152363768D01*
X125926945Y-152352947D01*
X125922375Y-152342062D01*
X125917864Y-152331113D01*
X125913412Y-152320101D01*
X125909021Y-152309026D01*
X125904691Y-152297889D01*
X125900422Y-152286690D01*
X125896215Y-152275430D01*
X125892070Y-152264110D01*
X125887988Y-152252731D01*
X125883969Y-152241293D01*
X125880014Y-152229798D01*
X125876124Y-152218246D01*
X125872298Y-152206639D01*
X125868538Y-152194977D01*
X125864844Y-152183262D01*
X125861217Y-152171496D01*
X125857658Y-152159679D01*
X125854166Y-152147814D01*
X125850744Y-152135901D01*
X125847390Y-152123944D01*
X125844107Y-152111943D01*
X125840895Y-152099901D01*
X125837753Y-152087821D01*
X125834685Y-152075704D01*
X125831689Y-152063553D01*
X125828767Y-152051371D01*
X125825919Y-152039162D01*
X125823147Y-152026928D01*
X125820450Y-152014673D01*
X125817831Y-152002401D01*
X125815290Y-151990117D01*
X125812827Y-151977825D01*
X125810444Y-151965529D01*
X125808141Y-151953236D01*
X125805920Y-151940952D01*
X125803781Y-151928683D01*
X125801726Y-151916436D01*
X125799755Y-151904220D01*
X125797870Y-151892043D01*
X125796072Y-151879915D01*
X125794361Y-151867848D01*
X125792739Y-151855855D01*
X125791207Y-151843948D01*
X125789767Y-151832144D01*
X125788419Y-151820461D01*
X125787165Y-151808921D01*
X125786006Y-151797548D01*
X125784944Y-151786372D01*
X125783981Y-151775427D01*
X125783117Y-151764756D01*
X125782355Y-151754413D01*
X125781696Y-151744466D01*
X125781142Y-151735006D01*
X125780695Y-151726163D01*
X125780357Y-151718131D01*
X125780131Y-151711245D01*
X125780017Y-151706234D01*
X125780000Y-151705000D01*
D11*
X127015000Y-153224942D02*
X157025000Y-153225057D01*
X172690000Y-124400000D02*
X172690000Y-61090000D01*
M02*
