%TF.GenerationSoftware,KiCad,Pcbnew,9.0.7*%
%TF.CreationDate,2026-05-24T23:53:21+02:00*%
%TF.ProjectId,bass_big_muff2,62617373-5f62-4696-975f-6d756666322e,rev?*%
%TF.SameCoordinates,Original*%
%TF.FileFunction,Copper,L1,Top*%
%TF.FilePolarity,Positive*%
%FSLAX46Y46*%
G04 Gerber Fmt 4.6, Leading zero omitted, Abs format (unit mm)*
G04 Created by KiCad (PCBNEW 9.0.7) date 2026-05-24 23:53:21*
%MOMM*%
%LPD*%
G01*
G04 APERTURE LIST*
G04 Aperture macros list*
%AMRoundRect*
0 Rectangle with rounded corners*
0 $1 Rounding radius*
0 $2 $3 $4 $5 $6 $7 $8 $9 X,Y pos of 4 corners*
0 Add a 4 corners polygon primitive as box body*
4,1,4,$2,$3,$4,$5,$6,$7,$8,$9,$2,$3,0*
0 Add four circle primitives for the rounded corners*
1,1,$1+$1,$2,$3*
1,1,$1+$1,$4,$5*
1,1,$1+$1,$6,$7*
1,1,$1+$1,$8,$9*
0 Add four rect primitives between the rounded corners*
20,1,$1+$1,$2,$3,$4,$5,0*
20,1,$1+$1,$4,$5,$6,$7,0*
20,1,$1+$1,$6,$7,$8,$9,0*
20,1,$1+$1,$8,$9,$2,$3,0*%
G04 Aperture macros list end*
%TA.AperFunction,ComponentPad*%
%ADD10C,1.720000*%
%TD*%
%TA.AperFunction,ComponentPad*%
%ADD11O,3.300000X1.700000*%
%TD*%
%TA.AperFunction,ComponentPad*%
%ADD12RoundRect,0.250000X-0.825000X-0.825000X0.825000X-0.825000X0.825000X0.825000X-0.825000X0.825000X0*%
%TD*%
%TA.AperFunction,ComponentPad*%
%ADD13RoundRect,0.250000X0.350000X0.350000X-0.350000X0.350000X-0.350000X-0.350000X0.350000X-0.350000X0*%
%TD*%
%TA.AperFunction,ComponentPad*%
%ADD14C,1.200000*%
%TD*%
%TA.AperFunction,ComponentPad*%
%ADD15RoundRect,0.250000X0.550000X0.550000X-0.550000X0.550000X-0.550000X-0.550000X0.550000X-0.550000X0*%
%TD*%
%TA.AperFunction,ComponentPad*%
%ADD16C,1.600000*%
%TD*%
%TA.AperFunction,ComponentPad*%
%ADD17RoundRect,0.250000X-0.550000X-0.550000X0.550000X-0.550000X0.550000X0.550000X-0.550000X0.550000X0*%
%TD*%
%TA.AperFunction,ComponentPad*%
%ADD18C,1.500000*%
%TD*%
%TA.AperFunction,ComponentPad*%
%ADD19RoundRect,0.250000X-0.350000X-0.350000X0.350000X-0.350000X0.350000X0.350000X-0.350000X0.350000X0*%
%TD*%
%TA.AperFunction,ComponentPad*%
%ADD20R,1.560000X1.560000*%
%TD*%
%TA.AperFunction,ComponentPad*%
%ADD21C,1.560000*%
%TD*%
%TA.AperFunction,ComponentPad*%
%ADD22RoundRect,0.250000X-0.550000X0.550000X-0.550000X-0.550000X0.550000X-0.550000X0.550000X0.550000X0*%
%TD*%
%TA.AperFunction,ComponentPad*%
%ADD23RoundRect,0.250000X0.550000X-0.550000X0.550000X0.550000X-0.550000X0.550000X-0.550000X-0.550000X0*%
%TD*%
%TA.AperFunction,ComponentPad*%
%ADD24RoundRect,0.249999X0.850001X0.850001X-0.850001X0.850001X-0.850001X-0.850001X0.850001X-0.850001X0*%
%TD*%
%TA.AperFunction,ComponentPad*%
%ADD25C,2.200000*%
%TD*%
%TA.AperFunction,ComponentPad*%
%ADD26R,1.800000X1.800000*%
%TD*%
%TA.AperFunction,ComponentPad*%
%ADD27C,1.800000*%
%TD*%
%TA.AperFunction,ComponentPad*%
%ADD28O,3.800000X2.200000*%
%TD*%
%TA.AperFunction,Conductor*%
%ADD29C,0.300000*%
%TD*%
%TA.AperFunction,Conductor*%
%ADD30C,0.500000*%
%TD*%
G04 APERTURE END LIST*
D10*
%TO.P,VOLUME1,1,1*%
%TO.N,Vref*%
X157410000Y-65355000D03*
%TO.P,VOLUME1,2,2*%
%TO.N,/TO_MIX*%
X162410000Y-65355000D03*
%TO.P,VOLUME1,3,3*%
%TO.N,Net-(R35-Pad2)*%
X167410000Y-65355000D03*
%TD*%
D11*
%TO.P,SW1,1,A*%
%TO.N,Net-(SW1A-A)*%
X137080000Y-139145000D03*
%TO.P,SW1,2,B*%
%TO.N,Net-(SW1A-B)*%
X137080000Y-143845000D03*
%TO.P,SW1,3,C*%
%TO.N,Net-(SW1A-C)*%
X137080000Y-148545000D03*
%TO.P,SW1,4,B*%
%TO.N,Net-(SW1B-B)*%
X142380000Y-139145000D03*
%TO.P,SW1,5,A*%
%TO.N,Net-(D2-K)*%
X142380000Y-143845000D03*
%TO.P,SW1,6,C*%
%TO.N,Net-(SW1A-A)*%
X142380000Y-148545000D03*
%TO.P,SW1,7,A*%
%TO.N,Net-(SW1C-A)*%
X147680000Y-139145000D03*
%TO.P,SW1,8,B*%
%TO.N,Net-(SW1C-B)*%
X147680000Y-143845000D03*
%TO.P,SW1,9,C*%
%TO.N,Net-(SW1A-C)*%
X147680000Y-148545000D03*
%TD*%
D10*
%TO.P,TONE1,1,1*%
%TO.N,Net-(C21-Pad1)*%
X137030000Y-70535000D03*
%TO.P,TONE1,2,2*%
%TO.N,Net-(SW2B-B)*%
X142030000Y-70535000D03*
%TO.P,TONE1,3,3*%
%TO.N,Net-(C20-Pad2)*%
X147030000Y-70535000D03*
%TD*%
D12*
%TO.P,PAD2,1,1*%
%TO.N,Net-(SW1C-A)*%
X147750000Y-131895000D03*
%TD*%
D13*
%TO.P,C16,1*%
%TO.N,Net-(C16-Pad1)*%
X135980000Y-105305000D03*
D14*
%TO.P,C16,2*%
%TO.N,GND*%
X134480000Y-105305000D03*
%TD*%
D15*
%TO.P,C6,1*%
%TO.N,Vref*%
X157170000Y-82985000D03*
D16*
%TO.P,C6,2*%
%TO.N,GND*%
X154670000Y-82985000D03*
%TD*%
%TO.P,R29,1*%
%TO.N,Net-(C19-Pad1)*%
X151470000Y-75505000D03*
%TO.P,R29,2*%
%TO.N,Net-(C21-Pad2)*%
X143850000Y-75505000D03*
%TD*%
D12*
%TO.P,PAD1,1,1*%
%TO.N,Net-(SW1A-A)*%
X136950000Y-131895000D03*
%TD*%
D16*
%TO.P,R21,1*%
%TO.N,Net-(D7-A)*%
X123360000Y-87165000D03*
%TO.P,R21,2*%
%TO.N,Net-(U2D-+)*%
X130980000Y-87165000D03*
%TD*%
%TO.P,R12,1*%
%TO.N,Net-(U1B--)*%
X143860000Y-101285000D03*
%TO.P,R12,2*%
%TO.N,Net-(SW2A-A)*%
X151480000Y-101285000D03*
%TD*%
D17*
%TO.P,U2,1*%
%TO.N,Net-(D7-A)*%
X123360000Y-90665000D03*
D16*
%TO.P,U2,2,-*%
%TO.N,Net-(U2A--)*%
X123360000Y-93205000D03*
%TO.P,U2,3,+*%
%TO.N,Net-(D7-K)*%
X123360000Y-95745000D03*
%TO.P,U2,4,V+*%
%TO.N,VCC*%
X123360000Y-98285000D03*
%TO.P,U2,5,+*%
%TO.N,Net-(U2B-+)*%
X123360000Y-100825000D03*
%TO.P,U2,6,-*%
%TO.N,Net-(D5-K)*%
X123360000Y-103365000D03*
%TO.P,U2,7*%
%TO.N,Net-(D5-A)*%
X123360000Y-105905000D03*
%TO.P,U2,8*%
%TO.N,Net-(R35-Pad2)*%
X130980000Y-105905000D03*
%TO.P,U2,9,-*%
%TO.N,Net-(U2C--)*%
X130980000Y-103365000D03*
%TO.P,U2,10,+*%
%TO.N,Net-(U2C-+)*%
X130980000Y-100825000D03*
%TO.P,U2,11,V-*%
%TO.N,GND*%
X130980000Y-98285000D03*
%TO.P,U2,12,+*%
%TO.N,Net-(U2D-+)*%
X130980000Y-95745000D03*
%TO.P,U2,13,-*%
%TO.N,Net-(D10-A)*%
X130980000Y-93205000D03*
%TO.P,U2,14*%
%TO.N,Net-(D10-K)*%
X130980000Y-90665000D03*
%TD*%
%TO.P,R26,1*%
%TO.N,Net-(D10-K)*%
X133860000Y-85467500D03*
%TO.P,R26,2*%
%TO.N,Net-(C19-Pad1)*%
X141480000Y-85467500D03*
%TD*%
%TO.P,R15,1*%
%TO.N,Net-(C12-Pad1)*%
X117935000Y-99720000D03*
%TO.P,R15,2*%
%TO.N,Net-(D7-K)*%
X120475000Y-99720000D03*
%TD*%
D18*
%TO.P,C19,1*%
%TO.N,Net-(C19-Pad1)*%
X139170000Y-82280000D03*
%TO.P,C19,2*%
%TO.N,GND*%
X134170000Y-82280000D03*
%TD*%
%TO.P,C8,1*%
%TO.N,Net-(U2B-+)*%
X124670000Y-113215000D03*
%TO.P,C8,2*%
%TO.N,/EFFECT_IN*%
X129670000Y-113215000D03*
%TD*%
%TO.P,C11,1*%
%TO.N,Net-(U2A--)*%
X120170000Y-93350000D03*
%TO.P,C11,2*%
%TO.N,GND*%
X115170000Y-93350000D03*
%TD*%
D17*
%TO.P,U1,1*%
%TO.N,Vref*%
X154560000Y-89443333D03*
D16*
%TO.P,U1,2,-*%
%TO.N,Net-(U1A--)*%
X154560000Y-91983333D03*
%TO.P,U1,3,+*%
%TO.N,Net-(U1A-+)*%
X154560000Y-94523333D03*
%TO.P,U1,4,V+*%
%TO.N,VCC*%
X154560000Y-97063333D03*
%TO.P,U1,5,+*%
%TO.N,Net-(D3-A)*%
X154560000Y-99603333D03*
%TO.P,U1,6,-*%
%TO.N,Net-(U1B--)*%
X154560000Y-102143333D03*
%TO.P,U1,7*%
%TO.N,Net-(SW2A-A)*%
X154560000Y-104683333D03*
%TO.P,U1,8*%
%TO.N,Net-(C15-Pad2)*%
X162180000Y-104683333D03*
%TO.P,U1,9,-*%
%TO.N,Net-(U1C--)*%
X162180000Y-102143333D03*
%TO.P,U1,10,+*%
%TO.N,Net-(U1C-+)*%
X162180000Y-99603333D03*
%TO.P,U1,11,V-*%
%TO.N,GND*%
X162180000Y-97063333D03*
%TO.P,U1,12,+*%
%TO.N,Net-(U1D-+)*%
X162180000Y-94523333D03*
%TO.P,U1,13,-*%
%TO.N,Net-(U1D--)*%
X162180000Y-91983333D03*
%TO.P,U1,14*%
%TO.N,Net-(C23-Pad2)*%
X162180000Y-89443333D03*
%TD*%
D18*
%TO.P,C21,1*%
%TO.N,Net-(C21-Pad1)*%
X129670000Y-79865000D03*
%TO.P,C21,2*%
%TO.N,Net-(C21-Pad2)*%
X124670000Y-79865000D03*
%TD*%
D16*
%TO.P,R2,1*%
%TO.N,VCC*%
X145850000Y-61325000D03*
%TO.P,R2,2*%
%TO.N,Net-(D1-K)*%
X138230000Y-61325000D03*
%TD*%
D12*
%TO.P,PAD22,1,1*%
%TO.N,/EFFECT_OUT*%
X147780000Y-123705000D03*
%TD*%
D15*
%TO.P,D8,1,K*%
%TO.N,Net-(D7-A)*%
X122050000Y-84130000D03*
D16*
%TO.P,D8,2,A*%
%TO.N,Net-(D7-K)*%
X114430000Y-84130000D03*
%TD*%
D18*
%TO.P,C24,1*%
%TO.N,Net-(U2C-+)*%
X134170000Y-113555000D03*
%TO.P,C24,2*%
%TO.N,Net-(SW2B-B)*%
X139170000Y-113555000D03*
%TD*%
D16*
%TO.P,R18,1*%
%TO.N,Net-(U1C--)*%
X165540000Y-120296429D03*
%TO.P,R18,2*%
%TO.N,Vref*%
X168080000Y-120296429D03*
%TD*%
D19*
%TO.P,C9,1*%
%TO.N,Net-(C9-Pad1)*%
X114960000Y-76790000D03*
D14*
%TO.P,C9,2*%
%TO.N,GND*%
X116460000Y-76790000D03*
%TD*%
D12*
%TO.P,PAD3,1,1*%
%TO.N,Net-(PAD3-Pad1)*%
X140550000Y-131895000D03*
%TD*%
D15*
%TO.P,C5,1*%
%TO.N,Net-(U1A--)*%
X148875113Y-90205000D03*
D16*
%TO.P,C5,2*%
%TO.N,GND*%
X146375113Y-90205000D03*
%TD*%
%TO.P,R3,1*%
%TO.N,VCC*%
X143860000Y-82171667D03*
%TO.P,R3,2*%
%TO.N,Net-(U1A--)*%
X151480000Y-82171667D03*
%TD*%
%TO.P,C2,1*%
%TO.N,VCC*%
X125920000Y-109365000D03*
%TO.P,C2,2*%
%TO.N,GND*%
X128420000Y-109365000D03*
%TD*%
D20*
%TO.P,SCOOP1,1,1*%
%TO.N,unconnected-(SCOOP1-Pad1)*%
X129540000Y-76171191D03*
D21*
%TO.P,SCOOP1,2,2*%
%TO.N,Net-(R32-Pad2)*%
X127040000Y-71171191D03*
%TO.P,SCOOP1,3,3*%
%TO.N,Net-(C20-Pad2)*%
X124540000Y-76171191D03*
%TD*%
D16*
%TO.P,R6,1*%
%TO.N,Net-(C7-Pad2)*%
X143860000Y-94705000D03*
%TO.P,R6,2*%
%TO.N,Vref*%
X151480000Y-94705000D03*
%TD*%
D18*
%TO.P,C15,1*%
%TO.N,Net-(C15-Pad1)*%
X160870000Y-115908334D03*
%TO.P,C15,2*%
%TO.N,Net-(C15-Pad2)*%
X155870000Y-115908334D03*
%TD*%
D16*
%TO.P,R5,1*%
%TO.N,Vref*%
X143860000Y-78838333D03*
%TO.P,R5,2*%
%TO.N,Net-(U1A-+)*%
X151480000Y-78838333D03*
%TD*%
%TO.P,C17,1*%
%TO.N,Net-(D10-A)*%
X136360000Y-88455000D03*
%TO.P,C17,2*%
%TO.N,Net-(D10-K)*%
X133860000Y-88455000D03*
%TD*%
D12*
%TO.P,PAD21,1,1*%
%TO.N,/EFFECT_IN*%
X136980000Y-123705000D03*
%TD*%
D16*
%TO.P,R4,1*%
%TO.N,Net-(U1A--)*%
X151480000Y-85505000D03*
%TO.P,R4,2*%
%TO.N,GND*%
X143860000Y-85505000D03*
%TD*%
%TO.P,R28,1*%
%TO.N,Vref*%
X165910000Y-107465000D03*
%TO.P,R28,2*%
%TO.N,Net-(U1D--)*%
X168450000Y-107465000D03*
%TD*%
D17*
%TO.P,D10,1,K*%
%TO.N,Net-(D10-K)*%
X133850000Y-91192500D03*
D16*
%TO.P,D10,2,A*%
%TO.N,Net-(D10-A)*%
X141470000Y-91192500D03*
%TD*%
D12*
%TO.P,PAD6,1,1*%
%TO.N,Net-(SW1B-B)*%
X144150000Y-131895000D03*
%TD*%
%TO.P,PAD23,1,1*%
%TO.N,+9V*%
X140580000Y-123705000D03*
%TD*%
D18*
%TO.P,C7,1*%
%TO.N,/EFFECT_IN*%
X134170000Y-118005000D03*
%TO.P,C7,2*%
%TO.N,Net-(C7-Pad2)*%
X139170000Y-118005000D03*
%TD*%
D16*
%TO.P,R17,1*%
%TO.N,Net-(SW2A-B)*%
X165540000Y-113879286D03*
%TO.P,R17,2*%
%TO.N,Net-(U1C-+)*%
X168080000Y-113879286D03*
%TD*%
D12*
%TO.P,PAD4,1,1*%
%TO.N,Net-(SW1A-B)*%
X133350000Y-131895000D03*
%TD*%
%TO.P,PAD13,1,1*%
%TO.N,GND*%
X131840000Y-62315000D03*
%TD*%
D20*
%TO.P,MASTER1,1,1*%
%TO.N,GND*%
X150170000Y-118385000D03*
D21*
%TO.P,MASTER1,2,2*%
%TO.N,/EFFECT_OUT*%
X147670000Y-113385000D03*
%TO.P,MASTER1,3,3*%
%TO.N,Net-(MASTER1-Pad3)*%
X145170000Y-118385000D03*
%TD*%
D16*
%TO.P,R25,1*%
%TO.N,Net-(D10-A)*%
X141480000Y-96817500D03*
%TO.P,R25,2*%
%TO.N,Net-(D10-K)*%
X133860000Y-96817500D03*
%TD*%
%TO.P,C4,1*%
%TO.N,VCC*%
X157120000Y-108311667D03*
%TO.P,C4,2*%
%TO.N,GND*%
X159620000Y-108311667D03*
%TD*%
D12*
%TO.P,PAD5,1,1*%
%TO.N,Net-(SW1C-B)*%
X151350000Y-131895000D03*
%TD*%
D16*
%TO.P,R13,1*%
%TO.N,Net-(D5-K)*%
X117930000Y-109333333D03*
%TO.P,R13,2*%
%TO.N,Net-(D5-A)*%
X120470000Y-109333333D03*
%TD*%
%TO.P,R16,1*%
%TO.N,/TO_MIX*%
X165540000Y-117087857D03*
%TO.P,R16,2*%
%TO.N,Net-(U1C-+)*%
X168080000Y-117087857D03*
%TD*%
D19*
%TO.P,C12,1*%
%TO.N,Net-(C12-Pad1)*%
X119820000Y-76790000D03*
D14*
%TO.P,C12,2*%
%TO.N,GND*%
X121320000Y-76790000D03*
%TD*%
D15*
%TO.P,D9,1,K*%
%TO.N,Net-(D10-A)*%
X141480000Y-93880000D03*
D16*
%TO.P,D9,2,A*%
%TO.N,Net-(D10-K)*%
X133860000Y-93880000D03*
%TD*%
D18*
%TO.P,C14,1*%
%TO.N,Net-(U2D-+)*%
X129670000Y-83880000D03*
%TO.P,C14,2*%
%TO.N,GND*%
X124670000Y-83880000D03*
%TD*%
D12*
%TO.P,PAD26,1,1*%
%TO.N,GND*%
X144180000Y-123705000D03*
%TD*%
D16*
%TO.P,R30,1*%
%TO.N,Net-(U1D--)*%
X165900000Y-104245000D03*
%TO.P,R30,2*%
%TO.N,Net-(C23-Pad2)*%
X168440000Y-104245000D03*
%TD*%
D18*
%TO.P,C18,1*%
%TO.N,GND*%
X165500000Y-110595000D03*
%TO.P,C18,2*%
%TO.N,Net-(U1D-+)*%
X170500000Y-110595000D03*
%TD*%
D16*
%TO.P,R23,1*%
%TO.N,Net-(C15-Pad1)*%
X162180000Y-119956667D03*
%TO.P,R23,2*%
%TO.N,GND*%
X154560000Y-119956667D03*
%TD*%
D20*
%TO.P,BASS_CTRL1,1,1*%
%TO.N,unconnected-(BASS_CTRL1-Pad1)*%
X170360000Y-100585000D03*
D21*
%TO.P,BASS_CTRL1,2,2*%
%TO.N,Net-(SW2B-C)*%
X167860000Y-95585000D03*
%TO.P,BASS_CTRL1,3,3*%
%TO.N,Net-(BASS_CTRL1-Pad3)*%
X165360000Y-100585000D03*
%TD*%
D15*
%TO.P,D3,1,K*%
%TO.N,VCC*%
X151480000Y-107615000D03*
D16*
%TO.P,D3,2,A*%
%TO.N,Net-(D3-A)*%
X143860000Y-107615000D03*
%TD*%
%TO.P,R32,1*%
%TO.N,GND*%
X117930000Y-71620000D03*
%TO.P,R32,2*%
%TO.N,Net-(R32-Pad2)*%
X120470000Y-71620000D03*
%TD*%
D10*
%TO.P,SUSTAIN1,1,1*%
%TO.N,unconnected-(SUSTAIN1-Pad1)*%
X116720000Y-65355000D03*
%TO.P,SUSTAIN1,2,2*%
%TO.N,Net-(C9-Pad1)*%
X121720000Y-65355000D03*
%TO.P,SUSTAIN1,3,3*%
%TO.N,Net-(R10-Pad1)*%
X126720000Y-65355000D03*
%TD*%
D16*
%TO.P,R8,1*%
%TO.N,Net-(D3-A)*%
X151480000Y-104575000D03*
%TO.P,R8,2*%
%TO.N,Net-(C7-Pad2)*%
X143860000Y-104575000D03*
%TD*%
%TO.P,R7,1*%
%TO.N,/EFFECT_IN*%
X123360000Y-117065000D03*
%TO.P,R7,2*%
%TO.N,GND*%
X130980000Y-117065000D03*
%TD*%
%TO.P,R20,1*%
%TO.N,Net-(U1C--)*%
X165540000Y-123505000D03*
%TO.P,R20,2*%
%TO.N,Net-(C15-Pad2)*%
X168080000Y-123505000D03*
%TD*%
%TO.P,R11,1*%
%TO.N,Net-(U1B--)*%
X151480000Y-97995000D03*
%TO.P,R11,2*%
%TO.N,Vref*%
X143860000Y-97995000D03*
%TD*%
D18*
%TO.P,C23,1*%
%TO.N,Net-(BASS_CTRL1-Pad3)*%
X170480000Y-92205000D03*
%TO.P,C23,2*%
%TO.N,Net-(C23-Pad2)*%
X165480000Y-92205000D03*
%TD*%
D16*
%TO.P,R22,1*%
%TO.N,Net-(D10-A)*%
X133860000Y-100005000D03*
%TO.P,R22,2*%
%TO.N,Net-(C16-Pad1)*%
X141480000Y-100005000D03*
%TD*%
D12*
%TO.P,PAD12,1,1*%
%TO.N,GND*%
X144850000Y-54975000D03*
%TD*%
D22*
%TO.P,D5,1,K*%
%TO.N,Net-(D5-K)*%
X120280000Y-115040000D03*
D16*
%TO.P,D5,2,A*%
%TO.N,Net-(D5-A)*%
X120280000Y-122660000D03*
%TD*%
D12*
%TO.P,PAD14,1,1*%
%TO.N,GND*%
X152310000Y-62315000D03*
%TD*%
D16*
%TO.P,R24,1*%
%TO.N,Net-(MASTER1-Pad3)*%
X154560000Y-123505000D03*
%TO.P,R24,2*%
%TO.N,Net-(C15-Pad1)*%
X162180000Y-123505000D03*
%TD*%
D23*
%TO.P,D6,1,K*%
%TO.N,Net-(D5-A)*%
X116820000Y-122660000D03*
D16*
%TO.P,D6,2,A*%
%TO.N,Net-(D5-K)*%
X116820000Y-115040000D03*
%TD*%
%TO.P,R27,1*%
%TO.N,Net-(C19-Pad1)*%
X154560000Y-111860000D03*
%TO.P,R27,2*%
%TO.N,Net-(U1D-+)*%
X162180000Y-111860000D03*
%TD*%
D12*
%TO.P,PAD11,1,1*%
%TO.N,+9V*%
X139230000Y-54975000D03*
%TD*%
D18*
%TO.P,C22,1*%
%TO.N,Net-(C21-Pad2)*%
X139170000Y-75905000D03*
%TO.P,C22,2*%
%TO.N,GND*%
X134170000Y-75905000D03*
%TD*%
D16*
%TO.P,R10,1*%
%TO.N,Net-(R10-Pad1)*%
X117935000Y-102930000D03*
%TO.P,R10,2*%
%TO.N,Net-(D5-K)*%
X120475000Y-102930000D03*
%TD*%
%TO.P,R19,1*%
%TO.N,Net-(D7-K)*%
X117930000Y-90183333D03*
%TO.P,R19,2*%
%TO.N,Net-(D7-A)*%
X120470000Y-90183333D03*
%TD*%
D17*
%TO.P,D4,1,K*%
%TO.N,Net-(D3-A)*%
X143860000Y-110405000D03*
D16*
%TO.P,D4,2,A*%
%TO.N,GND*%
X151480000Y-110405000D03*
%TD*%
%TO.P,R33,1*%
%TO.N,Vref*%
X141380000Y-109605000D03*
%TO.P,R33,2*%
%TO.N,Net-(U2C-+)*%
X133760000Y-109605000D03*
%TD*%
D13*
%TO.P,C25,1*%
%TO.N,Net-(C25-Pad1)*%
X140980000Y-105305000D03*
D14*
%TO.P,C25,2*%
%TO.N,GND*%
X139480000Y-105305000D03*
%TD*%
D16*
%TO.P,R34,1*%
%TO.N,Net-(U2C--)*%
X123360000Y-123765000D03*
%TO.P,R34,2*%
%TO.N,Net-(C25-Pad1)*%
X130980000Y-123765000D03*
%TD*%
D17*
%TO.P,C1,1*%
%TO.N,VCC*%
X154880000Y-74905000D03*
D16*
%TO.P,C1,2*%
%TO.N,GND*%
X157380000Y-74905000D03*
%TD*%
%TO.P,C10,1*%
%TO.N,Net-(D5-K)*%
X117980000Y-112325000D03*
%TO.P,C10,2*%
%TO.N,Net-(D5-A)*%
X120480000Y-112325000D03*
%TD*%
%TO.P,R35,1*%
%TO.N,Net-(U2C--)*%
X123360000Y-120415000D03*
%TO.P,R35,2*%
%TO.N,Net-(R35-Pad2)*%
X130980000Y-120415000D03*
%TD*%
%TO.P,R9,1*%
%TO.N,Vref*%
X117930000Y-106145000D03*
%TO.P,R9,2*%
%TO.N,Net-(U2B-+)*%
X120470000Y-106145000D03*
%TD*%
D17*
%TO.P,D7,1,K*%
%TO.N,Net-(D7-K)*%
X114430000Y-80615000D03*
D16*
%TO.P,D7,2,A*%
%TO.N,Net-(D7-A)*%
X122050000Y-80615000D03*
%TD*%
%TO.P,R14,1*%
%TO.N,Net-(D5-A)*%
X117930000Y-96566666D03*
%TO.P,R14,2*%
%TO.N,Net-(U2A--)*%
X120470000Y-96566666D03*
%TD*%
D24*
%TO.P,D1,1,K*%
%TO.N,Net-(D1-K)*%
X147140000Y-65605000D03*
D25*
%TO.P,D1,2,A*%
%TO.N,+9V*%
X136980000Y-65605000D03*
%TD*%
D18*
%TO.P,C20,1*%
%TO.N,Net-(C19-Pad1)*%
X139170000Y-79092500D03*
%TO.P,C20,2*%
%TO.N,Net-(C20-Pad2)*%
X134170000Y-79092500D03*
%TD*%
D16*
%TO.P,C13,1*%
%TO.N,Net-(D7-K)*%
X117960000Y-87190000D03*
%TO.P,C13,2*%
%TO.N,Net-(D7-A)*%
X120460000Y-87190000D03*
%TD*%
%TO.P,R_LED1,1*%
%TO.N,Net-(PAD3-Pad1)*%
X130980000Y-151655000D03*
%TO.P,R_LED1,2*%
%TO.N,Net-(D2-A)*%
X130980000Y-144035000D03*
%TD*%
D26*
%TO.P,D2,1,K*%
%TO.N,Net-(D2-K)*%
X130650000Y-138225000D03*
D27*
%TO.P,D2,2,A*%
%TO.N,Net-(D2-A)*%
X128110000Y-138225000D03*
%TD*%
D28*
%TO.P,SW2,1,A*%
%TO.N,Net-(SW2A-A)*%
X162780000Y-85205000D03*
%TO.P,SW2,2,B*%
%TO.N,Net-(SW2A-B)*%
X162780000Y-80505000D03*
%TO.P,SW2,3,C*%
%TO.N,Vref*%
X162780000Y-75805000D03*
%TO.P,SW2,4,A*%
%TO.N,unconnected-(SW2B-A-Pad4)*%
X167580000Y-75805000D03*
%TO.P,SW2,5,B*%
%TO.N,Net-(SW2B-B)*%
X167580000Y-80505000D03*
%TO.P,SW2,6,C*%
%TO.N,Net-(SW2B-C)*%
X167580000Y-85205000D03*
%TD*%
D29*
%TO.N,Net-(D5-K)*%
X117930000Y-109333333D02*
X116779000Y-108182333D01*
X119324000Y-104081000D02*
X120475000Y-102930000D01*
X116779000Y-108182333D02*
X116779000Y-105668240D01*
X116779000Y-105668240D02*
X118366240Y-104081000D01*
X118366240Y-104081000D02*
X119324000Y-104081000D01*
%TO.N,Net-(D5-A)*%
X123360000Y-105905000D02*
X121626000Y-104171000D01*
X121626000Y-104171000D02*
X121626000Y-98826000D01*
X121626000Y-98826000D02*
X120517666Y-97717666D01*
X120517666Y-97717666D02*
X119081000Y-97717666D01*
X119081000Y-97717666D02*
X117930000Y-96566666D01*
D30*
%TO.N,+9V*%
X139230000Y-54975000D02*
X139230000Y-58555818D01*
X139230000Y-58555818D02*
X136980000Y-60805818D01*
X136980000Y-60805818D02*
X136980000Y-65605000D01*
D29*
%TO.N,Net-(SW2B-C)*%
X167860000Y-85485000D02*
X167580000Y-85205000D01*
X167860000Y-95585000D02*
X167860000Y-85485000D01*
%TO.N,Net-(BASS_CTRL1-Pad3)*%
X170480000Y-95465000D02*
X170480000Y-92205000D01*
X165360000Y-100585000D02*
X170480000Y-95465000D01*
D30*
%TO.N,GND*%
X123301000Y-82511000D02*
X124670000Y-83880000D01*
X135821000Y-74254000D02*
X134170000Y-75905000D01*
X159620000Y-99623333D02*
X162180000Y-97063333D01*
X117511000Y-77841000D02*
X116460000Y-76790000D01*
X146375113Y-88020113D02*
X143860000Y-85505000D01*
X150170000Y-118385000D02*
X150170000Y-111715000D01*
X147089182Y-76975000D02*
X144368182Y-74254000D01*
X143150000Y-76975000D02*
X145720000Y-76975000D01*
X144368182Y-74254000D02*
X135821000Y-74254000D01*
X150170000Y-111715000D02*
X151480000Y-110405000D01*
X145706000Y-125231000D02*
X154603182Y-125231000D01*
X142609000Y-77516000D02*
X143150000Y-76975000D01*
X117940000Y-75310000D02*
X116460000Y-76790000D01*
X145720000Y-76975000D02*
X147660000Y-76975000D01*
X135011000Y-109086818D02*
X135011000Y-110123182D01*
X125037500Y-92342500D02*
X124670000Y-91975000D01*
X143860000Y-85505000D02*
X142609000Y-84254000D01*
X151741667Y-119956667D02*
X150170000Y-118385000D01*
X132231000Y-101226058D02*
X134480000Y-103475058D01*
X130980000Y-98285000D02*
X132231000Y-99536000D01*
X124660000Y-91985000D02*
X124670000Y-91975000D01*
X142609000Y-84254000D02*
X142609000Y-77516000D01*
X120467292Y-77841000D02*
X117511000Y-77841000D01*
X122706516Y-97034000D02*
X123878182Y-97034000D01*
X138429000Y-106356000D02*
X139480000Y-105305000D01*
X134480000Y-105305000D02*
X134480000Y-108555818D01*
X123301000Y-78771000D02*
X123301000Y-82511000D01*
X135760000Y-80690000D02*
X134170000Y-82280000D01*
X151480000Y-111536370D02*
X153054630Y-113111000D01*
X121320000Y-76988292D02*
X120467292Y-77841000D01*
X124670000Y-91975000D02*
X124670000Y-83865000D01*
X130980000Y-98285000D02*
X125037500Y-92342500D01*
X151480000Y-110405000D02*
X151480000Y-111536370D01*
X129911000Y-110856000D02*
X128420000Y-109365000D01*
X126255000Y-82280000D02*
X134170000Y-82280000D01*
X154603182Y-125231000D02*
X155811000Y-124023182D01*
X144180000Y-123705000D02*
X145706000Y-125231000D01*
X148609182Y-62315000D02*
X152310000Y-62315000D01*
X146375113Y-90205000D02*
X146375113Y-88020113D01*
X154560000Y-119956667D02*
X151741667Y-119956667D01*
X155811000Y-124023182D02*
X155811000Y-121207667D01*
X117940000Y-71625000D02*
X117940000Y-75310000D01*
X153054630Y-113111000D02*
X155078182Y-113111000D01*
X121320000Y-76790000D02*
X121320000Y-76988292D01*
X134480000Y-108555818D02*
X135011000Y-109086818D01*
X147660000Y-76975000D02*
X147089182Y-76975000D01*
X121320000Y-76790000D02*
X123301000Y-78771000D01*
X116371000Y-94551000D02*
X120223516Y-94551000D01*
X115170000Y-93350000D02*
X116371000Y-94551000D01*
X144850000Y-54975000D02*
X144850000Y-58555818D01*
X123878182Y-97034000D02*
X124660000Y-96252182D01*
X155310000Y-76975000D02*
X157380000Y-74905000D01*
X132231000Y-99536000D02*
X132231000Y-101226058D01*
X134480000Y-103475058D02*
X134480000Y-105305000D01*
X134278182Y-110856000D02*
X129911000Y-110856000D01*
X124660000Y-96252182D02*
X124660000Y-91985000D01*
X155078182Y-113111000D02*
X159620000Y-108569182D01*
X159620000Y-108311667D02*
X159620000Y-99623333D01*
X155811000Y-121207667D02*
X154560000Y-119956667D01*
X134170000Y-75905000D02*
X135760000Y-77495000D01*
X120223516Y-94551000D02*
X122706516Y-97034000D01*
X159620000Y-108569182D02*
X159620000Y-108311667D01*
X131840000Y-62315000D02*
X131840000Y-73575000D01*
X124670000Y-83865000D02*
X126255000Y-82280000D01*
X135760000Y-77495000D02*
X135760000Y-80690000D01*
X144850000Y-58555818D02*
X148609182Y-62315000D01*
X147660000Y-76975000D02*
X155310000Y-76975000D01*
X131840000Y-73575000D02*
X134170000Y-75905000D01*
X135011000Y-110123182D02*
X134278182Y-110856000D01*
X134480000Y-105305000D02*
X134480000Y-105503292D01*
X134480000Y-105503292D02*
X135332708Y-106356000D01*
X135332708Y-106356000D02*
X138429000Y-106356000D01*
%TO.N,VCC*%
X151480000Y-107615000D02*
X153397515Y-107615000D01*
X154560000Y-97063333D02*
X158631000Y-92992333D01*
X156131000Y-73654000D02*
X154880000Y-74905000D01*
X158631000Y-74386818D02*
X157898182Y-73654000D01*
X157898182Y-73654000D02*
X156131000Y-73654000D01*
X155811000Y-105201515D02*
X155811000Y-98314333D01*
X155811000Y-98314333D02*
X154560000Y-97063333D01*
X153397515Y-107615000D02*
X155811000Y-105201515D01*
X151480000Y-107615000D02*
X156423333Y-107615000D01*
X156423333Y-107615000D02*
X157120000Y-108311667D01*
X158631000Y-92992333D02*
X158631000Y-74386818D01*
D29*
%TO.N,Net-(U1A--)*%
X151480000Y-87600113D02*
X148875113Y-90205000D01*
X151480000Y-82171667D02*
X151480000Y-85505000D01*
X151480000Y-85505000D02*
X151480000Y-87600113D01*
%TO.N,Vref*%
X155036760Y-95674333D02*
X155711000Y-95000093D01*
X155711000Y-90594333D02*
X154560000Y-89443333D01*
X117930000Y-106145000D02*
X117930000Y-107705573D01*
X152449333Y-95674333D02*
X155036760Y-95674333D01*
X119319000Y-109094573D02*
X119319000Y-112791760D01*
X139528000Y-111457000D02*
X141380000Y-109605000D01*
X143860000Y-78838333D02*
X145011000Y-77687333D01*
X125400480Y-114316000D02*
X128259480Y-111457000D01*
X117930000Y-107705573D02*
X119319000Y-109094573D01*
X151956760Y-77687333D02*
X157170000Y-82900573D01*
X151480000Y-94705000D02*
X152449333Y-95674333D01*
X157170000Y-82900573D02*
X157170000Y-82985000D01*
X157410000Y-65355000D02*
X162780000Y-70725000D01*
X155711000Y-95000093D02*
X155711000Y-90594333D01*
X120416240Y-113889000D02*
X123786950Y-113889000D01*
X154560000Y-89443333D02*
X154560000Y-85595000D01*
X123786950Y-113889000D02*
X124213950Y-114316000D01*
X162780000Y-70725000D02*
X162780000Y-75805000D01*
X154560000Y-85595000D02*
X157170000Y-82985000D01*
X128259480Y-111457000D02*
X139528000Y-111457000D01*
X124213950Y-114316000D02*
X125400480Y-114316000D01*
X119319000Y-112791760D02*
X120416240Y-113889000D01*
X145011000Y-77687333D02*
X151956760Y-77687333D01*
%TO.N,/EFFECT_IN*%
X136980000Y-123705000D02*
X136980000Y-120815000D01*
X136980000Y-120815000D02*
X134170000Y-118005000D01*
X129670000Y-113505000D02*
X129670000Y-113215000D01*
X134170000Y-118005000D02*
X129670000Y-113505000D01*
X129670000Y-113215000D02*
X127210000Y-113215000D01*
X127210000Y-113215000D02*
X123360000Y-117065000D01*
%TO.N,Net-(C7-Pad2)*%
X142531000Y-114644000D02*
X139170000Y-118005000D01*
X142709000Y-95856000D02*
X143860000Y-94705000D01*
X142709000Y-103424000D02*
X142709000Y-95856000D01*
X143860000Y-104575000D02*
X142709000Y-103424000D01*
X142531000Y-105904000D02*
X142531000Y-114644000D01*
X143860000Y-104575000D02*
X142531000Y-105904000D01*
%TO.N,Net-(D5-K)*%
X117930000Y-112275000D02*
X117980000Y-112325000D01*
X116820000Y-115040000D02*
X120280000Y-115040000D01*
X117980000Y-113880000D02*
X116820000Y-115040000D01*
X117930000Y-109333333D02*
X117930000Y-112275000D01*
X117980000Y-112325000D02*
X117980000Y-113880000D01*
%TO.N,Net-(D5-A)*%
X116820000Y-122660000D02*
X120280000Y-122660000D01*
X122449000Y-104994000D02*
X123360000Y-105905000D01*
X120480000Y-112325000D02*
X120480000Y-109333333D01*
X119319000Y-108182333D02*
X119319000Y-105668240D01*
X119319000Y-105668240D02*
X119993240Y-104994000D01*
X119993240Y-104994000D02*
X122449000Y-104994000D01*
X120470000Y-109333333D02*
X119319000Y-108182333D01*
%TO.N,Net-(D7-K)*%
X117960000Y-90153333D02*
X117930000Y-90183333D01*
X118560383Y-90183333D02*
X123360000Y-94982950D01*
X117930000Y-90183333D02*
X118560383Y-90183333D01*
X123360000Y-94982950D02*
X123360000Y-95745000D01*
X117490000Y-87190000D02*
X117960000Y-87190000D01*
X114430000Y-84130000D02*
X117490000Y-87190000D01*
X114430000Y-80615000D02*
X114430000Y-84130000D01*
X117960000Y-87190000D02*
X117960000Y-90153333D01*
%TO.N,Net-(D7-A)*%
X120460000Y-87190000D02*
X120460000Y-90173333D01*
X122050000Y-84130000D02*
X122050000Y-85855000D01*
X122050000Y-85855000D02*
X123360000Y-87165000D01*
X120470000Y-90183333D02*
X120493333Y-90183333D01*
X120485000Y-87165000D02*
X120460000Y-87190000D01*
X123360000Y-87165000D02*
X120485000Y-87165000D01*
X120493333Y-90183333D02*
X120975000Y-90665000D01*
X122050000Y-80615000D02*
X122050000Y-84130000D01*
X120975000Y-90665000D02*
X123360000Y-90665000D01*
X120460000Y-90173333D02*
X120470000Y-90183333D01*
%TO.N,Net-(C15-Pad2)*%
X155870000Y-115908334D02*
X162180000Y-109598334D01*
X166929000Y-124656000D02*
X168080000Y-123505000D01*
X155870000Y-115908334D02*
X155870000Y-118822760D01*
X161703240Y-124656000D02*
X166929000Y-124656000D01*
X155870000Y-118822760D02*
X161703240Y-124656000D01*
X162180000Y-109598334D02*
X162180000Y-104683333D01*
%TO.N,Net-(C15-Pad1)*%
X162180000Y-123505000D02*
X162180000Y-119956667D01*
X162180000Y-117218334D02*
X160870000Y-115908334D01*
X162180000Y-119956667D02*
X162180000Y-117218334D01*
%TO.N,Net-(C16-Pad1)*%
X136180000Y-105305000D02*
X141480000Y-100005000D01*
X135980000Y-105305000D02*
X136180000Y-105305000D01*
%TO.N,Net-(D10-A)*%
X141480000Y-93880000D02*
X141480000Y-91202500D01*
X130980000Y-93205000D02*
X132709000Y-94934000D01*
X138732500Y-88455000D02*
X141470000Y-91192500D01*
X141480000Y-91202500D02*
X141470000Y-91192500D01*
X136360000Y-88455000D02*
X138732500Y-88455000D01*
X141480000Y-96817500D02*
X141480000Y-93880000D01*
X132709000Y-98854000D02*
X133860000Y-100005000D01*
X132709000Y-94934000D02*
X132709000Y-98854000D01*
%TO.N,Net-(D10-K)*%
X133322500Y-90665000D02*
X133850000Y-91192500D01*
X130980000Y-90665000D02*
X133322500Y-90665000D01*
X133860000Y-91202500D02*
X133850000Y-91192500D01*
X133860000Y-88455000D02*
X133860000Y-85467500D01*
X133850000Y-88465000D02*
X133860000Y-88455000D01*
X133860000Y-93880000D02*
X133860000Y-91202500D01*
X133850000Y-91192500D02*
X133850000Y-88465000D01*
X133860000Y-93880000D02*
X133860000Y-96817500D01*
%TO.N,Net-(C19-Pad1)*%
X154560000Y-111857240D02*
X154560000Y-111860000D01*
X145011000Y-88998500D02*
X145011000Y-103126000D01*
X141480000Y-85467500D02*
X145011000Y-88998500D01*
X151956760Y-109254000D02*
X154560000Y-111857240D01*
X139170000Y-79092500D02*
X139170000Y-82280000D01*
X151139000Y-109254000D02*
X151956760Y-109254000D01*
X139170000Y-82280000D02*
X141480000Y-84590000D01*
X145011000Y-103126000D02*
X151139000Y-109254000D01*
X141480000Y-84590000D02*
X141480000Y-85467500D01*
%TO.N,Net-(C21-Pad2)*%
X143850000Y-75505000D02*
X139570000Y-75505000D01*
X139570000Y-75505000D02*
X139170000Y-75905000D01*
%TO.N,Net-(SW2B-B)*%
X158910000Y-63565000D02*
X155110000Y-63565000D01*
X155110000Y-63565000D02*
X150390000Y-68285000D01*
X165031000Y-69696000D02*
X158910000Y-63575000D01*
X144280000Y-68285000D02*
X142030000Y-70535000D01*
X150390000Y-68285000D02*
X144280000Y-68285000D01*
X165031000Y-77956000D02*
X165031000Y-69696000D01*
X167580000Y-80505000D02*
X165031000Y-77956000D01*
%TO.N,Net-(D1-K)*%
X142860000Y-61325000D02*
X147140000Y-65605000D01*
X138230000Y-61325000D02*
X142860000Y-61325000D01*
%TO.N,Net-(D3-A)*%
X143860000Y-110405000D02*
X143860000Y-107615000D01*
X150329000Y-100808240D02*
X151533907Y-99603333D01*
X151533907Y-99603333D02*
X154560000Y-99603333D01*
X151480000Y-104575000D02*
X150329000Y-103424000D01*
X150329000Y-103424000D02*
X150329000Y-100808240D01*
%TO.N,Net-(D2-A)*%
X130980000Y-141095000D02*
X128110000Y-138225000D01*
X130980000Y-144035000D02*
X130980000Y-141095000D01*
%TO.N,Net-(MASTER1-Pad3)*%
X145170000Y-118385000D02*
X150290000Y-123505000D01*
X150290000Y-123505000D02*
X154560000Y-123505000D01*
%TO.N,/EFFECT_OUT*%
X147780000Y-113495000D02*
X147670000Y-113385000D01*
X144039000Y-117016000D02*
X147670000Y-113385000D01*
X144039000Y-119964000D02*
X144039000Y-117016000D01*
X147780000Y-123705000D02*
X144039000Y-119964000D01*
%TO.N,Net-(U1A-+)*%
X153409000Y-93372333D02*
X154560000Y-94523333D01*
X153409000Y-80767333D02*
X153409000Y-93372333D01*
X151480000Y-78838333D02*
X153409000Y-80767333D01*
%TO.N,Net-(SW2A-A)*%
X151480000Y-101285000D02*
X154560000Y-104365000D01*
X154560000Y-104365000D02*
X154560000Y-104683333D01*
%TO.N,/TO_MIX*%
X162410000Y-65355000D02*
X171820000Y-74765000D01*
X168556760Y-118238857D02*
X166691000Y-118238857D01*
X171820000Y-74765000D02*
X171820000Y-114975617D01*
X171820000Y-114975617D02*
X168556760Y-118238857D01*
X166691000Y-118238857D02*
X165540000Y-117087857D01*
%TO.N,Net-(SW2A-B)*%
X164381000Y-101866000D02*
X163850000Y-101335000D01*
X165031000Y-85806024D02*
X165031000Y-82756000D01*
X165540000Y-113879286D02*
X164381000Y-112720286D01*
X163850000Y-101335000D02*
X163850000Y-86987024D01*
X165031000Y-82756000D02*
X162780000Y-80505000D01*
X163850000Y-86987024D02*
X165031000Y-85806024D01*
X164381000Y-112720286D02*
X164381000Y-101866000D01*
%TO.N,Net-(R32-Pad2)*%
X120480000Y-71625000D02*
X126586191Y-71625000D01*
X126586191Y-71625000D02*
X127040000Y-71171191D01*
%TO.N,Net-(U1D-+)*%
X163880000Y-102215573D02*
X163880000Y-114753617D01*
X162180000Y-94523333D02*
X163331000Y-95674333D01*
X164611383Y-115485000D02*
X168102046Y-115485000D01*
X170720000Y-112867046D02*
X170720000Y-110615000D01*
X168102046Y-115485000D02*
X170720000Y-112867046D01*
X163880000Y-114753617D02*
X164611383Y-115485000D01*
X163331000Y-95674333D02*
X163331000Y-101666573D01*
X163331000Y-101666573D02*
X163880000Y-102215573D01*
%TO.N,Net-(U1C--)*%
X165540000Y-120296429D02*
X163331000Y-118087429D01*
X163331000Y-103294333D02*
X162180000Y-102143333D01*
X163331000Y-118087429D02*
X163331000Y-103294333D01*
X165540000Y-123505000D02*
X165540000Y-120296429D01*
%TO.N,Net-(U1D--)*%
X168450000Y-107465000D02*
X165900000Y-104915000D01*
X165900000Y-104915000D02*
X165900000Y-104245000D01*
%TO.N,Net-(U2B-+)*%
X124670000Y-110345000D02*
X124670000Y-110530000D01*
X124670000Y-110530000D02*
X124670000Y-113215000D01*
X120470000Y-106145000D02*
X124670000Y-110345000D01*
X124670000Y-110530000D02*
X124670000Y-102135000D01*
X124670000Y-102135000D02*
X123360000Y-100825000D01*
%TO.N,Net-(U2C-+)*%
X132131000Y-101976000D02*
X130980000Y-100825000D01*
X133760000Y-109605000D02*
X132131000Y-107976000D01*
X132131000Y-107976000D02*
X132131000Y-101976000D01*
%TO.N,Net-(U2D-+)*%
X129670000Y-85855000D02*
X130980000Y-87165000D01*
X129829000Y-88316000D02*
X129829000Y-94594000D01*
X129670000Y-83865000D02*
X129670000Y-85855000D01*
X130980000Y-87165000D02*
X129829000Y-88316000D01*
X129829000Y-94594000D02*
X130980000Y-95745000D01*
%TO.N,Net-(U2C--)*%
X123360000Y-120415000D02*
X123360000Y-123765000D01*
%TO.N,Net-(SW1A-A)*%
X136950000Y-139015000D02*
X137080000Y-139145000D01*
X136950000Y-131895000D02*
X136950000Y-139015000D01*
%TO.N,Net-(SW1C-A)*%
X147750000Y-131895000D02*
X147750000Y-139075000D01*
X147750000Y-139075000D02*
X147680000Y-139145000D01*
%TO.N,Net-(PAD3-Pad1)*%
X136468470Y-151655000D02*
X130980000Y-151655000D01*
X140550000Y-131895000D02*
X139120000Y-133325000D01*
X139120000Y-133325000D02*
X139120000Y-149003470D01*
X139120000Y-149003470D02*
X136468470Y-151655000D01*
%TO.N,Net-(SW1A-B)*%
X137080000Y-143845000D02*
X133350000Y-140115000D01*
X133350000Y-140115000D02*
X133350000Y-131895000D01*
%TO.N,Net-(SW1C-B)*%
X151350000Y-140175000D02*
X147680000Y-143845000D01*
X151350000Y-131895000D02*
X151350000Y-140175000D01*
%TO.N,Net-(SW1B-B)*%
X144150000Y-131895000D02*
X144150000Y-137375000D01*
X144150000Y-137375000D02*
X142380000Y-139145000D01*
%TD*%
M02*
