%TF.GenerationSoftware,KiCad,Pcbnew,9.0.7*%
%TF.CreationDate,2026-05-24T23:53:21+02:00*%
%TF.ProjectId,bass_big_muff2,62617373-5f62-4696-975f-6d756666322e,rev?*%
%TF.SameCoordinates,Original*%
%TF.FileFunction,Copper,L2,Bot*%
%TF.FilePolarity,Positive*%
%FSLAX46Y46*%
G04 Gerber Fmt 4.6, Leading zero omitted, Abs format (unit mm)*
G04 Created by KiCad (PCBNEW 9.0.7) date 2026-05-24 23:53:21*
%MOMM*%
%LPD*%
G01*
G04 APERTURE LIST*
G04 Aperture macros list*
%AMRoundRect*
0 Rectangle with rounded corners*
0 $1 Rounding radius*
0 $2 $3 $4 $5 $6 $7 $8 $9 X,Y pos of 4 corners*
0 Add a 4 corners polygon primitive as box body*
4,1,4,$2,$3,$4,$5,$6,$7,$8,$9,$2,$3,0*
0 Add four circle primitives for the rounded corners*
1,1,$1+$1,$2,$3*
1,1,$1+$1,$4,$5*
1,1,$1+$1,$6,$7*
1,1,$1+$1,$8,$9*
0 Add four rect primitives between the rounded corners*
20,1,$1+$1,$2,$3,$4,$5,0*
20,1,$1+$1,$4,$5,$6,$7,0*
20,1,$1+$1,$6,$7,$8,$9,0*
20,1,$1+$1,$8,$9,$2,$3,0*%
G04 Aperture macros list end*
%TA.AperFunction,ComponentPad*%
%ADD10C,1.720000*%
%TD*%
%TA.AperFunction,ComponentPad*%
%ADD11O,3.300000X1.700000*%
%TD*%
%TA.AperFunction,ComponentPad*%
%ADD12RoundRect,0.250000X-0.825000X-0.825000X0.825000X-0.825000X0.825000X0.825000X-0.825000X0.825000X0*%
%TD*%
%TA.AperFunction,ComponentPad*%
%ADD13RoundRect,0.250000X0.350000X0.350000X-0.350000X0.350000X-0.350000X-0.350000X0.350000X-0.350000X0*%
%TD*%
%TA.AperFunction,ComponentPad*%
%ADD14C,1.200000*%
%TD*%
%TA.AperFunction,ComponentPad*%
%ADD15RoundRect,0.250000X0.550000X0.550000X-0.550000X0.550000X-0.550000X-0.550000X0.550000X-0.550000X0*%
%TD*%
%TA.AperFunction,ComponentPad*%
%ADD16C,1.600000*%
%TD*%
%TA.AperFunction,ComponentPad*%
%ADD17RoundRect,0.250000X-0.550000X-0.550000X0.550000X-0.550000X0.550000X0.550000X-0.550000X0.550000X0*%
%TD*%
%TA.AperFunction,ComponentPad*%
%ADD18C,1.500000*%
%TD*%
%TA.AperFunction,ComponentPad*%
%ADD19RoundRect,0.250000X-0.350000X-0.350000X0.350000X-0.350000X0.350000X0.350000X-0.350000X0.350000X0*%
%TD*%
%TA.AperFunction,ComponentPad*%
%ADD20R,1.560000X1.560000*%
%TD*%
%TA.AperFunction,ComponentPad*%
%ADD21C,1.560000*%
%TD*%
%TA.AperFunction,ComponentPad*%
%ADD22RoundRect,0.250000X-0.550000X0.550000X-0.550000X-0.550000X0.550000X-0.550000X0.550000X0.550000X0*%
%TD*%
%TA.AperFunction,ComponentPad*%
%ADD23RoundRect,0.250000X0.550000X-0.550000X0.550000X0.550000X-0.550000X0.550000X-0.550000X-0.550000X0*%
%TD*%
%TA.AperFunction,ComponentPad*%
%ADD24RoundRect,0.249999X0.850001X0.850001X-0.850001X0.850001X-0.850001X-0.850001X0.850001X-0.850001X0*%
%TD*%
%TA.AperFunction,ComponentPad*%
%ADD25C,2.200000*%
%TD*%
%TA.AperFunction,ComponentPad*%
%ADD26R,1.800000X1.800000*%
%TD*%
%TA.AperFunction,ComponentPad*%
%ADD27C,1.800000*%
%TD*%
%TA.AperFunction,ComponentPad*%
%ADD28O,3.800000X2.200000*%
%TD*%
%TA.AperFunction,Conductor*%
%ADD29C,0.300000*%
%TD*%
%TA.AperFunction,Conductor*%
%ADD30C,0.200000*%
%TD*%
%TA.AperFunction,Conductor*%
%ADD31C,0.500000*%
%TD*%
G04 APERTURE END LIST*
D10*
%TO.P,VOLUME1,1,1*%
%TO.N,Vref*%
X157410000Y-65355000D03*
%TO.P,VOLUME1,2,2*%
%TO.N,/TO_MIX*%
X162410000Y-65355000D03*
%TO.P,VOLUME1,3,3*%
%TO.N,Net-(R35-Pad2)*%
X167410000Y-65355000D03*
%TD*%
D11*
%TO.P,SW1,1,A*%
%TO.N,Net-(SW1A-A)*%
X137080000Y-139145000D03*
%TO.P,SW1,2,B*%
%TO.N,Net-(SW1A-B)*%
X137080000Y-143845000D03*
%TO.P,SW1,3,C*%
%TO.N,Net-(SW1A-C)*%
X137080000Y-148545000D03*
%TO.P,SW1,4,B*%
%TO.N,Net-(SW1B-B)*%
X142380000Y-139145000D03*
%TO.P,SW1,5,A*%
%TO.N,Net-(D2-K)*%
X142380000Y-143845000D03*
%TO.P,SW1,6,C*%
%TO.N,Net-(SW1A-A)*%
X142380000Y-148545000D03*
%TO.P,SW1,7,A*%
%TO.N,Net-(SW1C-A)*%
X147680000Y-139145000D03*
%TO.P,SW1,8,B*%
%TO.N,Net-(SW1C-B)*%
X147680000Y-143845000D03*
%TO.P,SW1,9,C*%
%TO.N,Net-(SW1A-C)*%
X147680000Y-148545000D03*
%TD*%
D10*
%TO.P,TONE1,1,1*%
%TO.N,Net-(C21-Pad1)*%
X137030000Y-70535000D03*
%TO.P,TONE1,2,2*%
%TO.N,Net-(SW2B-B)*%
X142030000Y-70535000D03*
%TO.P,TONE1,3,3*%
%TO.N,Net-(C20-Pad2)*%
X147030000Y-70535000D03*
%TD*%
D12*
%TO.P,PAD2,1,1*%
%TO.N,Net-(SW1C-A)*%
X147750000Y-131895000D03*
%TD*%
D13*
%TO.P,C16,1*%
%TO.N,Net-(C16-Pad1)*%
X135980000Y-105305000D03*
D14*
%TO.P,C16,2*%
%TO.N,GND*%
X134480000Y-105305000D03*
%TD*%
D15*
%TO.P,C6,1*%
%TO.N,Vref*%
X157170000Y-82985000D03*
D16*
%TO.P,C6,2*%
%TO.N,GND*%
X154670000Y-82985000D03*
%TD*%
%TO.P,R29,1*%
%TO.N,Net-(C19-Pad1)*%
X151470000Y-75505000D03*
%TO.P,R29,2*%
%TO.N,Net-(C21-Pad2)*%
X143850000Y-75505000D03*
%TD*%
D12*
%TO.P,PAD1,1,1*%
%TO.N,Net-(SW1A-A)*%
X136950000Y-131895000D03*
%TD*%
D16*
%TO.P,R21,1*%
%TO.N,Net-(D7-A)*%
X123360000Y-87165000D03*
%TO.P,R21,2*%
%TO.N,Net-(U2D-+)*%
X130980000Y-87165000D03*
%TD*%
%TO.P,R12,1*%
%TO.N,Net-(U1B--)*%
X143860000Y-101285000D03*
%TO.P,R12,2*%
%TO.N,Net-(SW2A-A)*%
X151480000Y-101285000D03*
%TD*%
D17*
%TO.P,U2,1*%
%TO.N,Net-(D7-A)*%
X123360000Y-90665000D03*
D16*
%TO.P,U2,2,-*%
%TO.N,Net-(U2A--)*%
X123360000Y-93205000D03*
%TO.P,U2,3,+*%
%TO.N,Net-(D7-K)*%
X123360000Y-95745000D03*
%TO.P,U2,4,V+*%
%TO.N,VCC*%
X123360000Y-98285000D03*
%TO.P,U2,5,+*%
%TO.N,Net-(U2B-+)*%
X123360000Y-100825000D03*
%TO.P,U2,6,-*%
%TO.N,Net-(D5-K)*%
X123360000Y-103365000D03*
%TO.P,U2,7*%
%TO.N,Net-(D5-A)*%
X123360000Y-105905000D03*
%TO.P,U2,8*%
%TO.N,Net-(R35-Pad2)*%
X130980000Y-105905000D03*
%TO.P,U2,9,-*%
%TO.N,Net-(U2C--)*%
X130980000Y-103365000D03*
%TO.P,U2,10,+*%
%TO.N,Net-(U2C-+)*%
X130980000Y-100825000D03*
%TO.P,U2,11,V-*%
%TO.N,GND*%
X130980000Y-98285000D03*
%TO.P,U2,12,+*%
%TO.N,Net-(U2D-+)*%
X130980000Y-95745000D03*
%TO.P,U2,13,-*%
%TO.N,Net-(D10-A)*%
X130980000Y-93205000D03*
%TO.P,U2,14*%
%TO.N,Net-(D10-K)*%
X130980000Y-90665000D03*
%TD*%
%TO.P,R26,1*%
%TO.N,Net-(D10-K)*%
X133860000Y-85467500D03*
%TO.P,R26,2*%
%TO.N,Net-(C19-Pad1)*%
X141480000Y-85467500D03*
%TD*%
%TO.P,R15,1*%
%TO.N,Net-(C12-Pad1)*%
X117935000Y-99720000D03*
%TO.P,R15,2*%
%TO.N,Net-(D7-K)*%
X120475000Y-99720000D03*
%TD*%
D18*
%TO.P,C19,1*%
%TO.N,Net-(C19-Pad1)*%
X139170000Y-82280000D03*
%TO.P,C19,2*%
%TO.N,GND*%
X134170000Y-82280000D03*
%TD*%
%TO.P,C8,1*%
%TO.N,Net-(U2B-+)*%
X124670000Y-113215000D03*
%TO.P,C8,2*%
%TO.N,/EFFECT_IN*%
X129670000Y-113215000D03*
%TD*%
%TO.P,C11,1*%
%TO.N,Net-(U2A--)*%
X120170000Y-93350000D03*
%TO.P,C11,2*%
%TO.N,GND*%
X115170000Y-93350000D03*
%TD*%
D17*
%TO.P,U1,1*%
%TO.N,Vref*%
X154560000Y-89443333D03*
D16*
%TO.P,U1,2,-*%
%TO.N,Net-(U1A--)*%
X154560000Y-91983333D03*
%TO.P,U1,3,+*%
%TO.N,Net-(U1A-+)*%
X154560000Y-94523333D03*
%TO.P,U1,4,V+*%
%TO.N,VCC*%
X154560000Y-97063333D03*
%TO.P,U1,5,+*%
%TO.N,Net-(D3-A)*%
X154560000Y-99603333D03*
%TO.P,U1,6,-*%
%TO.N,Net-(U1B--)*%
X154560000Y-102143333D03*
%TO.P,U1,7*%
%TO.N,Net-(SW2A-A)*%
X154560000Y-104683333D03*
%TO.P,U1,8*%
%TO.N,Net-(C15-Pad2)*%
X162180000Y-104683333D03*
%TO.P,U1,9,-*%
%TO.N,Net-(U1C--)*%
X162180000Y-102143333D03*
%TO.P,U1,10,+*%
%TO.N,Net-(U1C-+)*%
X162180000Y-99603333D03*
%TO.P,U1,11,V-*%
%TO.N,GND*%
X162180000Y-97063333D03*
%TO.P,U1,12,+*%
%TO.N,Net-(U1D-+)*%
X162180000Y-94523333D03*
%TO.P,U1,13,-*%
%TO.N,Net-(U1D--)*%
X162180000Y-91983333D03*
%TO.P,U1,14*%
%TO.N,Net-(C23-Pad2)*%
X162180000Y-89443333D03*
%TD*%
D18*
%TO.P,C21,1*%
%TO.N,Net-(C21-Pad1)*%
X129670000Y-79865000D03*
%TO.P,C21,2*%
%TO.N,Net-(C21-Pad2)*%
X124670000Y-79865000D03*
%TD*%
D16*
%TO.P,R2,1*%
%TO.N,VCC*%
X145850000Y-61325000D03*
%TO.P,R2,2*%
%TO.N,Net-(D1-K)*%
X138230000Y-61325000D03*
%TD*%
D12*
%TO.P,PAD22,1,1*%
%TO.N,/EFFECT_OUT*%
X147780000Y-123705000D03*
%TD*%
D15*
%TO.P,D8,1,K*%
%TO.N,Net-(D7-A)*%
X122050000Y-84130000D03*
D16*
%TO.P,D8,2,A*%
%TO.N,Net-(D7-K)*%
X114430000Y-84130000D03*
%TD*%
D18*
%TO.P,C24,1*%
%TO.N,Net-(U2C-+)*%
X134170000Y-113555000D03*
%TO.P,C24,2*%
%TO.N,Net-(SW2B-B)*%
X139170000Y-113555000D03*
%TD*%
D16*
%TO.P,R18,1*%
%TO.N,Net-(U1C--)*%
X165540000Y-120296429D03*
%TO.P,R18,2*%
%TO.N,Vref*%
X168080000Y-120296429D03*
%TD*%
D19*
%TO.P,C9,1*%
%TO.N,Net-(C9-Pad1)*%
X114960000Y-76790000D03*
D14*
%TO.P,C9,2*%
%TO.N,GND*%
X116460000Y-76790000D03*
%TD*%
D12*
%TO.P,PAD3,1,1*%
%TO.N,Net-(PAD3-Pad1)*%
X140550000Y-131895000D03*
%TD*%
D15*
%TO.P,C5,1*%
%TO.N,Net-(U1A--)*%
X148875113Y-90205000D03*
D16*
%TO.P,C5,2*%
%TO.N,GND*%
X146375113Y-90205000D03*
%TD*%
%TO.P,R3,1*%
%TO.N,VCC*%
X143860000Y-82171667D03*
%TO.P,R3,2*%
%TO.N,Net-(U1A--)*%
X151480000Y-82171667D03*
%TD*%
%TO.P,C2,1*%
%TO.N,VCC*%
X125920000Y-109365000D03*
%TO.P,C2,2*%
%TO.N,GND*%
X128420000Y-109365000D03*
%TD*%
D20*
%TO.P,SCOOP1,1,1*%
%TO.N,unconnected-(SCOOP1-Pad1)*%
X129540000Y-76171191D03*
D21*
%TO.P,SCOOP1,2,2*%
%TO.N,Net-(R32-Pad2)*%
X127040000Y-71171191D03*
%TO.P,SCOOP1,3,3*%
%TO.N,Net-(C20-Pad2)*%
X124540000Y-76171191D03*
%TD*%
D16*
%TO.P,R6,1*%
%TO.N,Net-(C7-Pad2)*%
X143860000Y-94705000D03*
%TO.P,R6,2*%
%TO.N,Vref*%
X151480000Y-94705000D03*
%TD*%
D18*
%TO.P,C15,1*%
%TO.N,Net-(C15-Pad1)*%
X160870000Y-115908334D03*
%TO.P,C15,2*%
%TO.N,Net-(C15-Pad2)*%
X155870000Y-115908334D03*
%TD*%
D16*
%TO.P,R5,1*%
%TO.N,Vref*%
X143860000Y-78838333D03*
%TO.P,R5,2*%
%TO.N,Net-(U1A-+)*%
X151480000Y-78838333D03*
%TD*%
%TO.P,C17,1*%
%TO.N,Net-(D10-A)*%
X136360000Y-88455000D03*
%TO.P,C17,2*%
%TO.N,Net-(D10-K)*%
X133860000Y-88455000D03*
%TD*%
D12*
%TO.P,PAD21,1,1*%
%TO.N,/EFFECT_IN*%
X136980000Y-123705000D03*
%TD*%
D16*
%TO.P,R4,1*%
%TO.N,Net-(U1A--)*%
X151480000Y-85505000D03*
%TO.P,R4,2*%
%TO.N,GND*%
X143860000Y-85505000D03*
%TD*%
%TO.P,R28,1*%
%TO.N,Vref*%
X165910000Y-107465000D03*
%TO.P,R28,2*%
%TO.N,Net-(U1D--)*%
X168450000Y-107465000D03*
%TD*%
D17*
%TO.P,D10,1,K*%
%TO.N,Net-(D10-K)*%
X133850000Y-91192500D03*
D16*
%TO.P,D10,2,A*%
%TO.N,Net-(D10-A)*%
X141470000Y-91192500D03*
%TD*%
D12*
%TO.P,PAD6,1,1*%
%TO.N,Net-(SW1B-B)*%
X144150000Y-131895000D03*
%TD*%
%TO.P,PAD23,1,1*%
%TO.N,+9V*%
X140580000Y-123705000D03*
%TD*%
D18*
%TO.P,C7,1*%
%TO.N,/EFFECT_IN*%
X134170000Y-118005000D03*
%TO.P,C7,2*%
%TO.N,Net-(C7-Pad2)*%
X139170000Y-118005000D03*
%TD*%
D16*
%TO.P,R17,1*%
%TO.N,Net-(SW2A-B)*%
X165540000Y-113879286D03*
%TO.P,R17,2*%
%TO.N,Net-(U1C-+)*%
X168080000Y-113879286D03*
%TD*%
D12*
%TO.P,PAD4,1,1*%
%TO.N,Net-(SW1A-B)*%
X133350000Y-131895000D03*
%TD*%
%TO.P,PAD13,1,1*%
%TO.N,GND*%
X131840000Y-62315000D03*
%TD*%
D20*
%TO.P,MASTER1,1,1*%
%TO.N,GND*%
X150170000Y-118385000D03*
D21*
%TO.P,MASTER1,2,2*%
%TO.N,/EFFECT_OUT*%
X147670000Y-113385000D03*
%TO.P,MASTER1,3,3*%
%TO.N,Net-(MASTER1-Pad3)*%
X145170000Y-118385000D03*
%TD*%
D16*
%TO.P,R25,1*%
%TO.N,Net-(D10-A)*%
X141480000Y-96817500D03*
%TO.P,R25,2*%
%TO.N,Net-(D10-K)*%
X133860000Y-96817500D03*
%TD*%
%TO.P,C4,1*%
%TO.N,VCC*%
X157120000Y-108311667D03*
%TO.P,C4,2*%
%TO.N,GND*%
X159620000Y-108311667D03*
%TD*%
D12*
%TO.P,PAD5,1,1*%
%TO.N,Net-(SW1C-B)*%
X151350000Y-131895000D03*
%TD*%
D16*
%TO.P,R13,1*%
%TO.N,Net-(D5-K)*%
X117930000Y-109333333D03*
%TO.P,R13,2*%
%TO.N,Net-(D5-A)*%
X120470000Y-109333333D03*
%TD*%
%TO.P,R16,1*%
%TO.N,/TO_MIX*%
X165540000Y-117087857D03*
%TO.P,R16,2*%
%TO.N,Net-(U1C-+)*%
X168080000Y-117087857D03*
%TD*%
D19*
%TO.P,C12,1*%
%TO.N,Net-(C12-Pad1)*%
X119820000Y-76790000D03*
D14*
%TO.P,C12,2*%
%TO.N,GND*%
X121320000Y-76790000D03*
%TD*%
D15*
%TO.P,D9,1,K*%
%TO.N,Net-(D10-A)*%
X141480000Y-93880000D03*
D16*
%TO.P,D9,2,A*%
%TO.N,Net-(D10-K)*%
X133860000Y-93880000D03*
%TD*%
D18*
%TO.P,C14,1*%
%TO.N,Net-(U2D-+)*%
X129670000Y-83880000D03*
%TO.P,C14,2*%
%TO.N,GND*%
X124670000Y-83880000D03*
%TD*%
D12*
%TO.P,PAD26,1,1*%
%TO.N,GND*%
X144180000Y-123705000D03*
%TD*%
D16*
%TO.P,R30,1*%
%TO.N,Net-(U1D--)*%
X165900000Y-104245000D03*
%TO.P,R30,2*%
%TO.N,Net-(C23-Pad2)*%
X168440000Y-104245000D03*
%TD*%
D18*
%TO.P,C18,1*%
%TO.N,GND*%
X165500000Y-110595000D03*
%TO.P,C18,2*%
%TO.N,Net-(U1D-+)*%
X170500000Y-110595000D03*
%TD*%
D16*
%TO.P,R23,1*%
%TO.N,Net-(C15-Pad1)*%
X162180000Y-119956667D03*
%TO.P,R23,2*%
%TO.N,GND*%
X154560000Y-119956667D03*
%TD*%
D20*
%TO.P,BASS_CTRL1,1,1*%
%TO.N,unconnected-(BASS_CTRL1-Pad1)*%
X170360000Y-100585000D03*
D21*
%TO.P,BASS_CTRL1,2,2*%
%TO.N,Net-(SW2B-C)*%
X167860000Y-95585000D03*
%TO.P,BASS_CTRL1,3,3*%
%TO.N,Net-(BASS_CTRL1-Pad3)*%
X165360000Y-100585000D03*
%TD*%
D15*
%TO.P,D3,1,K*%
%TO.N,VCC*%
X151480000Y-107615000D03*
D16*
%TO.P,D3,2,A*%
%TO.N,Net-(D3-A)*%
X143860000Y-107615000D03*
%TD*%
%TO.P,R32,1*%
%TO.N,GND*%
X117930000Y-71620000D03*
%TO.P,R32,2*%
%TO.N,Net-(R32-Pad2)*%
X120470000Y-71620000D03*
%TD*%
D10*
%TO.P,SUSTAIN1,1,1*%
%TO.N,unconnected-(SUSTAIN1-Pad1)*%
X116720000Y-65355000D03*
%TO.P,SUSTAIN1,2,2*%
%TO.N,Net-(C9-Pad1)*%
X121720000Y-65355000D03*
%TO.P,SUSTAIN1,3,3*%
%TO.N,Net-(R10-Pad1)*%
X126720000Y-65355000D03*
%TD*%
D16*
%TO.P,R8,1*%
%TO.N,Net-(D3-A)*%
X151480000Y-104575000D03*
%TO.P,R8,2*%
%TO.N,Net-(C7-Pad2)*%
X143860000Y-104575000D03*
%TD*%
%TO.P,R7,1*%
%TO.N,/EFFECT_IN*%
X123360000Y-117065000D03*
%TO.P,R7,2*%
%TO.N,GND*%
X130980000Y-117065000D03*
%TD*%
%TO.P,R20,1*%
%TO.N,Net-(U1C--)*%
X165540000Y-123505000D03*
%TO.P,R20,2*%
%TO.N,Net-(C15-Pad2)*%
X168080000Y-123505000D03*
%TD*%
%TO.P,R11,1*%
%TO.N,Net-(U1B--)*%
X151480000Y-97995000D03*
%TO.P,R11,2*%
%TO.N,Vref*%
X143860000Y-97995000D03*
%TD*%
D18*
%TO.P,C23,1*%
%TO.N,Net-(BASS_CTRL1-Pad3)*%
X170480000Y-92205000D03*
%TO.P,C23,2*%
%TO.N,Net-(C23-Pad2)*%
X165480000Y-92205000D03*
%TD*%
D16*
%TO.P,R22,1*%
%TO.N,Net-(D10-A)*%
X133860000Y-100005000D03*
%TO.P,R22,2*%
%TO.N,Net-(C16-Pad1)*%
X141480000Y-100005000D03*
%TD*%
D12*
%TO.P,PAD12,1,1*%
%TO.N,GND*%
X144850000Y-54975000D03*
%TD*%
D22*
%TO.P,D5,1,K*%
%TO.N,Net-(D5-K)*%
X120280000Y-115040000D03*
D16*
%TO.P,D5,2,A*%
%TO.N,Net-(D5-A)*%
X120280000Y-122660000D03*
%TD*%
D12*
%TO.P,PAD14,1,1*%
%TO.N,GND*%
X152310000Y-62315000D03*
%TD*%
D16*
%TO.P,R24,1*%
%TO.N,Net-(MASTER1-Pad3)*%
X154560000Y-123505000D03*
%TO.P,R24,2*%
%TO.N,Net-(C15-Pad1)*%
X162180000Y-123505000D03*
%TD*%
D23*
%TO.P,D6,1,K*%
%TO.N,Net-(D5-A)*%
X116820000Y-122660000D03*
D16*
%TO.P,D6,2,A*%
%TO.N,Net-(D5-K)*%
X116820000Y-115040000D03*
%TD*%
%TO.P,R27,1*%
%TO.N,Net-(C19-Pad1)*%
X154560000Y-111860000D03*
%TO.P,R27,2*%
%TO.N,Net-(U1D-+)*%
X162180000Y-111860000D03*
%TD*%
D12*
%TO.P,PAD11,1,1*%
%TO.N,+9V*%
X139230000Y-54975000D03*
%TD*%
D18*
%TO.P,C22,1*%
%TO.N,Net-(C21-Pad2)*%
X139170000Y-75905000D03*
%TO.P,C22,2*%
%TO.N,GND*%
X134170000Y-75905000D03*
%TD*%
D16*
%TO.P,R10,1*%
%TO.N,Net-(R10-Pad1)*%
X117935000Y-102930000D03*
%TO.P,R10,2*%
%TO.N,Net-(D5-K)*%
X120475000Y-102930000D03*
%TD*%
%TO.P,R19,1*%
%TO.N,Net-(D7-K)*%
X117930000Y-90183333D03*
%TO.P,R19,2*%
%TO.N,Net-(D7-A)*%
X120470000Y-90183333D03*
%TD*%
D17*
%TO.P,D4,1,K*%
%TO.N,Net-(D3-A)*%
X143860000Y-110405000D03*
D16*
%TO.P,D4,2,A*%
%TO.N,GND*%
X151480000Y-110405000D03*
%TD*%
%TO.P,R33,1*%
%TO.N,Vref*%
X141380000Y-109605000D03*
%TO.P,R33,2*%
%TO.N,Net-(U2C-+)*%
X133760000Y-109605000D03*
%TD*%
D13*
%TO.P,C25,1*%
%TO.N,Net-(C25-Pad1)*%
X140980000Y-105305000D03*
D14*
%TO.P,C25,2*%
%TO.N,GND*%
X139480000Y-105305000D03*
%TD*%
D16*
%TO.P,R34,1*%
%TO.N,Net-(U2C--)*%
X123360000Y-123765000D03*
%TO.P,R34,2*%
%TO.N,Net-(C25-Pad1)*%
X130980000Y-123765000D03*
%TD*%
D17*
%TO.P,C1,1*%
%TO.N,VCC*%
X154880000Y-74905000D03*
D16*
%TO.P,C1,2*%
%TO.N,GND*%
X157380000Y-74905000D03*
%TD*%
%TO.P,C10,1*%
%TO.N,Net-(D5-K)*%
X117980000Y-112325000D03*
%TO.P,C10,2*%
%TO.N,Net-(D5-A)*%
X120480000Y-112325000D03*
%TD*%
%TO.P,R35,1*%
%TO.N,Net-(U2C--)*%
X123360000Y-120415000D03*
%TO.P,R35,2*%
%TO.N,Net-(R35-Pad2)*%
X130980000Y-120415000D03*
%TD*%
%TO.P,R9,1*%
%TO.N,Vref*%
X117930000Y-106145000D03*
%TO.P,R9,2*%
%TO.N,Net-(U2B-+)*%
X120470000Y-106145000D03*
%TD*%
D17*
%TO.P,D7,1,K*%
%TO.N,Net-(D7-K)*%
X114430000Y-80615000D03*
D16*
%TO.P,D7,2,A*%
%TO.N,Net-(D7-A)*%
X122050000Y-80615000D03*
%TD*%
%TO.P,R14,1*%
%TO.N,Net-(D5-A)*%
X117930000Y-96566666D03*
%TO.P,R14,2*%
%TO.N,Net-(U2A--)*%
X120470000Y-96566666D03*
%TD*%
D24*
%TO.P,D1,1,K*%
%TO.N,Net-(D1-K)*%
X147140000Y-65605000D03*
D25*
%TO.P,D1,2,A*%
%TO.N,+9V*%
X136980000Y-65605000D03*
%TD*%
D18*
%TO.P,C20,1*%
%TO.N,Net-(C19-Pad1)*%
X139170000Y-79092500D03*
%TO.P,C20,2*%
%TO.N,Net-(C20-Pad2)*%
X134170000Y-79092500D03*
%TD*%
D16*
%TO.P,C13,1*%
%TO.N,Net-(D7-K)*%
X117960000Y-87190000D03*
%TO.P,C13,2*%
%TO.N,Net-(D7-A)*%
X120460000Y-87190000D03*
%TD*%
%TO.P,R_LED1,1*%
%TO.N,Net-(PAD3-Pad1)*%
X130980000Y-151655000D03*
%TO.P,R_LED1,2*%
%TO.N,Net-(D2-A)*%
X130980000Y-144035000D03*
%TD*%
D26*
%TO.P,D2,1,K*%
%TO.N,Net-(D2-K)*%
X130650000Y-138225000D03*
D27*
%TO.P,D2,2,A*%
%TO.N,Net-(D2-A)*%
X128110000Y-138225000D03*
%TD*%
D28*
%TO.P,SW2,1,A*%
%TO.N,Net-(SW2A-A)*%
X162780000Y-85205000D03*
%TO.P,SW2,2,B*%
%TO.N,Net-(SW2A-B)*%
X162780000Y-80505000D03*
%TO.P,SW2,3,C*%
%TO.N,Vref*%
X162780000Y-75805000D03*
%TO.P,SW2,4,A*%
%TO.N,unconnected-(SW2B-A-Pad4)*%
X167580000Y-75805000D03*
%TO.P,SW2,5,B*%
%TO.N,Net-(SW2B-B)*%
X167580000Y-80505000D03*
%TO.P,SW2,6,C*%
%TO.N,Net-(SW2B-C)*%
X167580000Y-85205000D03*
%TD*%
D29*
%TO.N,Net-(R10-Pad1)*%
X117480000Y-102955000D02*
X119250000Y-101185000D01*
X119250000Y-101185000D02*
X119250000Y-93987050D01*
X119309000Y-90432093D02*
X119309000Y-80241000D01*
X119250000Y-93987050D02*
X118960000Y-93697050D01*
X118960000Y-93697050D02*
X118960000Y-90781093D01*
X118960000Y-90781093D02*
X119309000Y-90432093D01*
X123409000Y-68666000D02*
X126720000Y-65355000D01*
X119309000Y-80241000D02*
X123409000Y-76141000D01*
X123409000Y-76141000D02*
X123409000Y-68666000D01*
D30*
%TO.N,+9V*%
X135569000Y-64194000D02*
X136980000Y-65605000D01*
X116239098Y-64194000D02*
X135569000Y-64194000D01*
X139204000Y-125081000D02*
X118516000Y-125081000D01*
X140580000Y-123705000D02*
X139204000Y-125081000D01*
X115719000Y-123445160D02*
X115719000Y-122284000D01*
X115719000Y-122284000D02*
X113170000Y-119735000D01*
X116034840Y-123761000D02*
X115719000Y-123445160D01*
X113170000Y-67263098D02*
X116239098Y-64194000D01*
X118516000Y-125081000D02*
X117196000Y-123761000D01*
X117196000Y-123761000D02*
X116034840Y-123761000D01*
X113170000Y-119735000D02*
X113170000Y-67263098D01*
D31*
%TO.N,GND*%
X157380000Y-67385000D02*
X152310000Y-62315000D01*
X146375113Y-90205000D02*
X146375113Y-88840705D01*
X163216667Y-108311667D02*
X165500000Y-110595000D01*
X146375113Y-88840705D02*
X150961818Y-84254000D01*
X139480000Y-109474182D02*
X139480000Y-105305000D01*
X151480000Y-110405000D02*
X150229000Y-111656000D01*
X153401000Y-84254000D02*
X154670000Y-82985000D01*
X141661818Y-111656000D02*
X139480000Y-109474182D01*
X128420000Y-114505000D02*
X128420000Y-109365000D01*
X159620000Y-108311667D02*
X163216667Y-108311667D01*
X150229000Y-111656000D02*
X141661818Y-111656000D01*
X157380000Y-74905000D02*
X157380000Y-67385000D01*
X150961818Y-84254000D02*
X153401000Y-84254000D01*
X130980000Y-117065000D02*
X128420000Y-114505000D01*
%TO.N,VCC*%
X143860000Y-82171667D02*
X148444334Y-77587333D01*
X154880000Y-74905000D02*
X154880000Y-70355000D01*
X132894818Y-83481000D02*
X142550667Y-83481000D01*
X142550667Y-83481000D02*
X143860000Y-82171667D01*
X154880000Y-70355000D02*
X145850000Y-61325000D01*
X148444334Y-77587333D02*
X152197667Y-77587333D01*
X125920000Y-109365000D02*
X125920000Y-100845000D01*
X123360000Y-98285000D02*
X129729000Y-91916000D01*
X129729000Y-86646818D02*
X132894818Y-83481000D01*
X129729000Y-91916000D02*
X129729000Y-86646818D01*
X152197667Y-77587333D02*
X154880000Y-74905000D01*
X125920000Y-100845000D02*
X123360000Y-98285000D01*
D29*
%TO.N,Net-(U1A--)*%
X148875113Y-90205000D02*
X152781667Y-90205000D01*
X152781667Y-90205000D02*
X154560000Y-91983333D01*
%TO.N,Vref*%
X163270000Y-86656000D02*
X164181024Y-86656000D01*
X151480000Y-94705000D02*
X147150000Y-94705000D01*
X160780000Y-104911093D02*
X160780000Y-89146000D01*
X159060000Y-107085000D02*
X158469000Y-107676000D01*
X163412024Y-82985000D02*
X157170000Y-82985000D01*
X142680000Y-99175000D02*
X143860000Y-97995000D01*
X158469000Y-107676000D02*
X158469000Y-110852521D01*
X162500000Y-114883520D02*
X162500000Y-117223521D01*
X160780000Y-89146000D02*
X163270000Y-86656000D01*
X165031000Y-84603976D02*
X163412024Y-82985000D01*
X164060000Y-121125000D02*
X164850000Y-121915000D01*
X142680000Y-108305000D02*
X142680000Y-99175000D01*
X165530000Y-107085000D02*
X159060000Y-107085000D01*
X165031000Y-85806024D02*
X165031000Y-84603976D01*
X166461429Y-121915000D02*
X168080000Y-120296429D01*
X165910000Y-107465000D02*
X165530000Y-107085000D01*
X164181024Y-86656000D02*
X165031000Y-85806024D01*
X162500000Y-117223521D02*
X164060000Y-118783520D01*
X162953907Y-107085000D02*
X160780000Y-104911093D01*
X158469000Y-110852521D02*
X162500000Y-114883520D01*
X147150000Y-94705000D02*
X143860000Y-97995000D01*
X157170000Y-81415000D02*
X162780000Y-75805000D01*
X157170000Y-82985000D02*
X157170000Y-81415000D01*
X141380000Y-109605000D02*
X142680000Y-108305000D01*
X164850000Y-121915000D02*
X166461429Y-121915000D01*
X165530000Y-107085000D02*
X162953907Y-107085000D01*
X164060000Y-118783520D02*
X164060000Y-121125000D01*
%TO.N,Net-(C9-Pad1)*%
X121720000Y-65355000D02*
X114960000Y-72115000D01*
X114960000Y-72115000D02*
X114960000Y-76790000D01*
%TO.N,Net-(D5-K)*%
X123256666Y-103365000D02*
X123360000Y-103365000D01*
X120020000Y-102955000D02*
X122950000Y-102955000D01*
X122950000Y-102955000D02*
X123360000Y-103365000D01*
%TO.N,Net-(D5-A)*%
X121431000Y-121509000D02*
X120280000Y-122660000D01*
X120480000Y-112325000D02*
X121431000Y-113276000D01*
X121431000Y-113276000D02*
X121431000Y-121509000D01*
%TO.N,Net-(C12-Pad1)*%
X116271000Y-80339000D02*
X116271000Y-98549333D01*
X116271000Y-98549333D02*
X117480000Y-99758333D01*
X119820000Y-76790000D02*
X116271000Y-80339000D01*
%TO.N,Net-(D10-A)*%
X130980000Y-93205000D02*
X132699000Y-91486000D01*
X132699000Y-91486000D02*
X132699000Y-90386630D01*
X135209000Y-89606000D02*
X136360000Y-88455000D01*
X133479630Y-89606000D02*
X135209000Y-89606000D01*
X132699000Y-90386630D02*
X133479630Y-89606000D01*
%TO.N,Net-(C19-Pad1)*%
X141890260Y-79092500D02*
X145477760Y-75505000D01*
X139170000Y-79092500D02*
X141890260Y-79092500D01*
X145477760Y-75505000D02*
X151470000Y-75505000D01*
%TO.N,Net-(C20-Pad2)*%
X138592500Y-74670000D02*
X142895000Y-74670000D01*
X142895000Y-74670000D02*
X147030000Y-70535000D01*
X132252500Y-81010000D02*
X134170000Y-79092500D01*
X134170000Y-79092500D02*
X138592500Y-74670000D01*
X124540000Y-78040000D02*
X127510000Y-81010000D01*
X127510000Y-81010000D02*
X132252500Y-81010000D01*
X124540000Y-76171191D02*
X124540000Y-78040000D01*
%TO.N,Net-(C21-Pad1)*%
X130671000Y-78864000D02*
X130671000Y-76894000D01*
X130671000Y-76894000D02*
X137030000Y-70535000D01*
X129670000Y-79865000D02*
X130671000Y-78864000D01*
%TO.N,Net-(C21-Pad2)*%
X138915000Y-75905000D02*
X132360000Y-82460000D01*
X127265000Y-82460000D02*
X124670000Y-79865000D01*
X132360000Y-82460000D02*
X127265000Y-82460000D01*
X139170000Y-75905000D02*
X138915000Y-75905000D01*
%TO.N,Net-(C23-Pad2)*%
X165661429Y-101835000D02*
X164916468Y-101835000D01*
X165090000Y-92205000D02*
X165480000Y-92205000D01*
X164050000Y-100968532D02*
X164050000Y-93245000D01*
X164916468Y-101835000D02*
X164050000Y-100968532D01*
X168080000Y-104253571D02*
X165661429Y-101835000D01*
X165480000Y-92205000D02*
X162718333Y-89443333D01*
X162718333Y-89443333D02*
X162180000Y-89443333D01*
X164050000Y-93245000D02*
X165090000Y-92205000D01*
%TO.N,Net-(SW2B-B)*%
X167580000Y-80505000D02*
X171670000Y-84595000D01*
X171670000Y-84595000D02*
X171670000Y-121542760D01*
X168487760Y-124725000D02*
X153109476Y-124725000D01*
X153109476Y-124725000D02*
X141939476Y-113555000D01*
X171670000Y-121542760D02*
X168487760Y-124725000D01*
X141939476Y-113555000D02*
X139170000Y-113555000D01*
%TO.N,Net-(C25-Pad1)*%
X138069000Y-104756000D02*
X138830000Y-103995000D01*
X138069000Y-116676000D02*
X138069000Y-104756000D01*
X130980000Y-123765000D02*
X138069000Y-116676000D01*
X138830000Y-103995000D02*
X140250000Y-103995000D01*
X140250000Y-103995000D02*
X140980000Y-104725000D01*
X140980000Y-104725000D02*
X140980000Y-105305000D01*
%TO.N,Net-(D3-A)*%
X151480000Y-104575000D02*
X146900000Y-104575000D01*
X146900000Y-104575000D02*
X143860000Y-107615000D01*
%TO.N,Net-(D2-K)*%
X141179000Y-142644000D02*
X135069000Y-142644000D01*
X142380000Y-143845000D02*
X141179000Y-142644000D01*
X135069000Y-142644000D02*
X130650000Y-138225000D01*
%TO.N,Net-(U1B--)*%
X151480000Y-97995000D02*
X151480000Y-99063333D01*
X151480000Y-97995000D02*
X147150000Y-97995000D01*
X151480000Y-99063333D02*
X154560000Y-102143333D01*
X147150000Y-97995000D02*
X143860000Y-101285000D01*
%TO.N,Net-(SW2A-A)*%
X155036760Y-103294333D02*
X153489333Y-103294333D01*
X155711000Y-92274000D02*
X155711000Y-102620093D01*
X162780000Y-85205000D02*
X155711000Y-92274000D01*
X155711000Y-102620093D02*
X155036760Y-103294333D01*
X153489333Y-103294333D02*
X151480000Y-101285000D01*
%TO.N,Net-(R35-Pad2)*%
X135011000Y-96023740D02*
X151045407Y-79989333D01*
X151045407Y-79989333D02*
X154815667Y-79989333D01*
X132180000Y-118585000D02*
X130980000Y-119785000D01*
X132180000Y-116637240D02*
X132180000Y-118585000D01*
X135011000Y-101874000D02*
X135011000Y-96023740D01*
X154815667Y-79989333D02*
X167410000Y-67395000D01*
X130980000Y-115437240D02*
X132180000Y-116637240D01*
X130980000Y-105905000D02*
X135011000Y-101874000D01*
X167410000Y-67395000D02*
X167410000Y-65355000D01*
X130980000Y-119785000D02*
X130980000Y-120415000D01*
X130980000Y-105905000D02*
X130980000Y-115437240D01*
%TO.N,Net-(SW1A-C)*%
X138281000Y-149746000D02*
X146479000Y-149746000D01*
X137080000Y-148545000D02*
X138281000Y-149746000D01*
X146479000Y-149746000D02*
X147680000Y-148545000D01*
%TO.N,Net-(U1D-+)*%
X163001000Y-117016000D02*
X163001000Y-114676000D01*
X163001000Y-114676000D02*
X162180000Y-113855000D01*
X162180000Y-113855000D02*
X162180000Y-111860000D01*
X164580000Y-118595000D02*
X163001000Y-117016000D01*
X170720000Y-110615000D02*
X170720000Y-116075617D01*
X168200617Y-118595000D02*
X164580000Y-118595000D01*
X170720000Y-116075617D02*
X168200617Y-118595000D01*
%TO.N,Net-(U1C-+)*%
X164389000Y-104594000D02*
X165969812Y-106174812D01*
X162180000Y-99603333D02*
X162180000Y-100515573D01*
X166247572Y-106174812D02*
X167061000Y-106988240D01*
X167061000Y-112860286D02*
X168080000Y-113879286D01*
X167061000Y-106988240D02*
X167061000Y-112860286D01*
X165969812Y-106174812D02*
X166247572Y-106174812D01*
X168080000Y-113879286D02*
X168080000Y-117087857D01*
X164389000Y-102724573D02*
X164389000Y-104594000D01*
X162180000Y-100515573D02*
X164389000Y-102724573D01*
%TO.N,Net-(U1D--)*%
X164890000Y-103603571D02*
X164890000Y-102517052D01*
X165540000Y-104253571D02*
X164890000Y-103603571D01*
X163331000Y-93134333D02*
X162180000Y-91983333D01*
X163331000Y-100958053D02*
X163331000Y-93134333D01*
X164890000Y-102517052D02*
X163331000Y-100958053D01*
%TO.N,Net-(U2A--)*%
X120170000Y-96266666D02*
X120470000Y-96566666D01*
X120170000Y-93350000D02*
X120170000Y-96266666D01*
X120170000Y-93350000D02*
X123215000Y-93350000D01*
X123215000Y-93350000D02*
X123360000Y-93205000D01*
%TO.N,Net-(U2C-+)*%
X134170000Y-113555000D02*
X134170000Y-110015000D01*
X134170000Y-110015000D02*
X133760000Y-109605000D01*
%TO.N,Net-(U2C--)*%
X123360000Y-120415000D02*
X127071000Y-116704000D01*
X127071000Y-107274000D02*
X130980000Y-103365000D01*
X127071000Y-116704000D02*
X127071000Y-107274000D01*
%TO.N,Net-(SW1A-A)*%
X137080000Y-140505000D02*
X138690000Y-142115000D01*
X144730000Y-146195000D02*
X142380000Y-148545000D01*
X144730000Y-142895000D02*
X144730000Y-146195000D01*
X138690000Y-142115000D02*
X143950000Y-142115000D01*
X137080000Y-139145000D02*
X137080000Y-140505000D01*
X143950000Y-142115000D02*
X144730000Y-142895000D01*
%TO.N,Net-(D7-K)*%
X120020000Y-99085000D02*
X120020000Y-99758333D01*
X123360000Y-95745000D02*
X120020000Y-99085000D01*
%TD*%
M02*
